<?xml version="1.0" encoding="UTF-8"?>
<svg width="250px" height="228px" viewBox="0 0 250 228" version="1.1" xmlns="http://www.w3.org/2000/svg" xmlns:xlink="http://www.w3.org/1999/xlink">
    <title>Asset 1 CopySVG</title>
    <defs>
        <linearGradient x1="-8.5476623%" y1="50%" x2="106.495203%" y2="50%" id="linearGradient-1">
            <stop stop-color="#FCB148" offset="0%"></stop>
            <stop stop-color="#FDBA46" offset="5%"></stop>
            <stop stop-color="#FFC244" offset="14%"></stop>
            <stop stop-color="#FFC444" offset="32%"></stop>
            <stop stop-color="#FDB946" offset="48%"></stop>
            <stop stop-color="#F99C4D" offset="78%"></stop>
            <stop stop-color="#F8924F" offset="87%"></stop>
            <stop stop-color="#F8924F" offset="100%"></stop>
        </linearGradient>
        <linearGradient x1="49.5028205%" y1="49.5476673%" x2="55.5677726%" y2="55.0548226%" id="linearGradient-2">
            <stop stop-color="#FFDB44" offset="0%"></stop>
            <stop stop-color="#FEEF06" offset="100%"></stop>
        </linearGradient>
        <linearGradient x1="49.2366084%" y1="49.413139%" x2="51.0979885%" y2="50.3656079%" id="linearGradient-3">
            <stop stop-color="#FFDB44" offset="0%"></stop>
            <stop stop-color="#FEEF06" offset="100%"></stop>
        </linearGradient>
        <linearGradient x1="50.9015705%" y1="50.7529334%" x2="49.0192594%" y2="49.5963717%" id="linearGradient-4">
            <stop stop-color="#F36F56" offset="0%"></stop>
            <stop stop-color="#F99C4C" offset="31%"></stop>
            <stop stop-color="#FDB946" offset="55%"></stop>
            <stop stop-color="#FFC444" offset="68%"></stop>
            <stop stop-color="#FFC244" offset="80%"></stop>
            <stop stop-color="#FEBA46" offset="87%"></stop>
            <stop stop-color="#FCAD49" offset="92%"></stop>
            <stop stop-color="#F99A4D" offset="96%"></stop>
            <stop stop-color="#F68252" offset="100%"></stop>
            <stop stop-color="#F57E53" offset="100%"></stop>
        </linearGradient>
        <linearGradient x1="-8.54939206%" y1="50.0317288%" x2="106.496901%" y2="50.0317288%" id="linearGradient-5">
            <stop stop-color="#FCB148" offset="0%"></stop>
            <stop stop-color="#FDBA46" offset="5%"></stop>
            <stop stop-color="#FFC244" offset="14%"></stop>
            <stop stop-color="#FFC444" offset="32%"></stop>
            <stop stop-color="#FDB946" offset="48%"></stop>
            <stop stop-color="#F99C4D" offset="78%"></stop>
            <stop stop-color="#F8924F" offset="87%"></stop>
            <stop stop-color="#F8924F" offset="100%"></stop>
        </linearGradient>
        <linearGradient x1="49.2294308%" y1="49.4126523%" x2="51.0908405%" y2="50.3652185%" id="linearGradient-6">
            <stop stop-color="#FFDB44" offset="0%"></stop>
            <stop stop-color="#FEEF06" offset="100%"></stop>
        </linearGradient>
        <linearGradient x1="-545.782977%" y1="33.5908445%" x2="-543.902281%" y2="34.7472875%" id="linearGradient-7">
            <stop stop-color="#F36F56" offset="0%"></stop>
            <stop stop-color="#F99C4C" offset="31%"></stop>
            <stop stop-color="#FDB946" offset="55%"></stop>
            <stop stop-color="#FFC444" offset="68%"></stop>
            <stop stop-color="#FFC244" offset="80%"></stop>
            <stop stop-color="#FEBA46" offset="87%"></stop>
            <stop stop-color="#FCAD49" offset="92%"></stop>
            <stop stop-color="#F99A4D" offset="96%"></stop>
            <stop stop-color="#F68252" offset="100%"></stop>
            <stop stop-color="#F57E53" offset="100%"></stop>
        </linearGradient>
        <linearGradient x1="49.5028205%" y1="49.5478401%" x2="55.5677726%" y2="55.0548226%" id="linearGradient-8">
            <stop stop-color="#FFDB44" offset="0%"></stop>
            <stop stop-color="#FEEF06" offset="100%"></stop>
        </linearGradient>
        <linearGradient x1="49.2366084%" y1="49.412966%" x2="51.0979885%" y2="50.3656367%" id="linearGradient-9">
            <stop stop-color="#FFDB44" offset="0%"></stop>
            <stop stop-color="#FEEF06" offset="100%"></stop>
        </linearGradient>
        <linearGradient x1="-570.115203%" y1="35.3198158%" x2="-568.232861%" y2="36.4763774%" id="linearGradient-10">
            <stop stop-color="#F36F56" offset="0%"></stop>
            <stop stop-color="#F99C4C" offset="31%"></stop>
            <stop stop-color="#FDB946" offset="55%"></stop>
            <stop stop-color="#FFC444" offset="68%"></stop>
            <stop stop-color="#FFC244" offset="80%"></stop>
            <stop stop-color="#FEBA46" offset="87%"></stop>
            <stop stop-color="#FCAD49" offset="92%"></stop>
            <stop stop-color="#F99A4D" offset="96%"></stop>
            <stop stop-color="#F68252" offset="100%"></stop>
            <stop stop-color="#F57E53" offset="100%"></stop>
        </linearGradient>
        <linearGradient x1="-8.54939206%" y1="50.0362582%" x2="106.495307%" y2="50.0362582%" id="linearGradient-11">
            <stop stop-color="#FCB148" offset="0%"></stop>
            <stop stop-color="#FDBA46" offset="5%"></stop>
            <stop stop-color="#FFC244" offset="14%"></stop>
            <stop stop-color="#FFC444" offset="32%"></stop>
            <stop stop-color="#FDB946" offset="48%"></stop>
            <stop stop-color="#F99C4D" offset="78%"></stop>
            <stop stop-color="#F8924F" offset="87%"></stop>
            <stop stop-color="#F8924F" offset="100%"></stop>
        </linearGradient>
        <linearGradient x1="49.2366084%" y1="49.412847%" x2="51.0979885%" y2="50.3653159%" id="linearGradient-12">
            <stop stop-color="#FFDB44" offset="0%"></stop>
            <stop stop-color="#FEEF06" offset="100%"></stop>
        </linearGradient>
        <linearGradient x1="-584.863957%" y1="37.0538873%" x2="-582.981645%" y2="38.2104489%" id="linearGradient-13">
            <stop stop-color="#F36F56" offset="0%"></stop>
            <stop stop-color="#F99C4C" offset="31%"></stop>
            <stop stop-color="#FDB946" offset="55%"></stop>
            <stop stop-color="#FFC444" offset="68%"></stop>
            <stop stop-color="#FFC244" offset="80%"></stop>
            <stop stop-color="#FEBA46" offset="87%"></stop>
            <stop stop-color="#FCAD49" offset="92%"></stop>
            <stop stop-color="#F99A4D" offset="96%"></stop>
            <stop stop-color="#F68252" offset="100%"></stop>
            <stop stop-color="#F57E53" offset="100%"></stop>
        </linearGradient>
        <linearGradient x1="49.5028205%" y1="49.5478401%" x2="55.5677726%" y2="55.0549954%" id="linearGradient-14">
            <stop stop-color="#FFDB44" offset="0%"></stop>
            <stop stop-color="#FEEF06" offset="100%"></stop>
        </linearGradient>
        <linearGradient x1="-573.970788%" y1="38.9248342%" x2="-572.088477%" y2="40.0813958%" id="linearGradient-15">
            <stop stop-color="#F36F56" offset="0%"></stop>
            <stop stop-color="#F99C4C" offset="31%"></stop>
            <stop stop-color="#FDB946" offset="55%"></stop>
            <stop stop-color="#FFC444" offset="68%"></stop>
            <stop stop-color="#FFC244" offset="80%"></stop>
            <stop stop-color="#FEBA46" offset="87%"></stop>
            <stop stop-color="#FCAD49" offset="92%"></stop>
            <stop stop-color="#F99A4D" offset="96%"></stop>
            <stop stop-color="#F68252" offset="100%"></stop>
            <stop stop-color="#F57E53" offset="100%"></stop>
        </linearGradient>
        <linearGradient x1="-8.54939206%" y1="50%" x2="106.496901%" y2="50%" id="linearGradient-16">
            <stop stop-color="#FCB148" offset="0%"></stop>
            <stop stop-color="#FDBA46" offset="5%"></stop>
            <stop stop-color="#FFC244" offset="14%"></stop>
            <stop stop-color="#FFC444" offset="32%"></stop>
            <stop stop-color="#FDB946" offset="48%"></stop>
            <stop stop-color="#F99C4D" offset="78%"></stop>
            <stop stop-color="#F8924F" offset="87%"></stop>
            <stop stop-color="#F8924F" offset="100%"></stop>
        </linearGradient>
        <linearGradient x1="49.501227%" y1="49.5476673%" x2="55.566179%" y2="55.0548226%" id="linearGradient-17">
            <stop stop-color="#FFDB44" offset="0%"></stop>
            <stop stop-color="#FEEF06" offset="100%"></stop>
        </linearGradient>
        <linearGradient x1="49.2294308%" y1="49.413139%" x2="51.0908405%" y2="50.3656079%" id="linearGradient-18">
            <stop stop-color="#FFDB44" offset="0%"></stop>
            <stop stop-color="#FEEF06" offset="100%"></stop>
        </linearGradient>
        <linearGradient x1="-545.738889%" y1="40.6634437%" x2="-543.858345%" y2="41.8194288%" id="linearGradient-19">
            <stop stop-color="#F36F56" offset="0%"></stop>
            <stop stop-color="#F99C4C" offset="31%"></stop>
            <stop stop-color="#FDB946" offset="55%"></stop>
            <stop stop-color="#FFC444" offset="68%"></stop>
            <stop stop-color="#FFC244" offset="80%"></stop>
            <stop stop-color="#FEBA46" offset="87%"></stop>
            <stop stop-color="#FCAD49" offset="92%"></stop>
            <stop stop-color="#F99A4D" offset="96%"></stop>
            <stop stop-color="#F68252" offset="100%"></stop>
            <stop stop-color="#F57E53" offset="100%"></stop>
        </linearGradient>
        <linearGradient x1="-8.5476623%" y1="49.9954673%" x2="106.495203%" y2="49.9954673%" id="linearGradient-20">
            <stop stop-color="#FCB148" offset="0%"></stop>
            <stop stop-color="#FDBA46" offset="5%"></stop>
            <stop stop-color="#FFC244" offset="14%"></stop>
            <stop stop-color="#FFC444" offset="32%"></stop>
            <stop stop-color="#FDB946" offset="48%"></stop>
            <stop stop-color="#F99C4D" offset="78%"></stop>
            <stop stop-color="#F8924F" offset="87%"></stop>
            <stop stop-color="#F8924F" offset="100%"></stop>
        </linearGradient>
        <linearGradient x1="-570.115203%" y1="42.3879955%" x2="-568.232861%" y2="43.5445572%" id="linearGradient-21">
            <stop stop-color="#F36F56" offset="0%"></stop>
            <stop stop-color="#F99C4C" offset="31%"></stop>
            <stop stop-color="#FDB946" offset="55%"></stop>
            <stop stop-color="#FFC444" offset="68%"></stop>
            <stop stop-color="#FFC244" offset="80%"></stop>
            <stop stop-color="#FEBA46" offset="87%"></stop>
            <stop stop-color="#FCAD49" offset="92%"></stop>
            <stop stop-color="#F99A4D" offset="96%"></stop>
            <stop stop-color="#F68252" offset="100%"></stop>
            <stop stop-color="#F57E53" offset="100%"></stop>
        </linearGradient>
        <linearGradient x1="-8.54939206%" y1="50%" x2="106.495307%" y2="50%" id="linearGradient-22">
            <stop stop-color="#FCB148" offset="0%"></stop>
            <stop stop-color="#FDBA46" offset="5%"></stop>
            <stop stop-color="#FFC244" offset="14%"></stop>
            <stop stop-color="#FFC444" offset="32%"></stop>
            <stop stop-color="#FDB946" offset="48%"></stop>
            <stop stop-color="#F99C4D" offset="78%"></stop>
            <stop stop-color="#F8924F" offset="87%"></stop>
            <stop stop-color="#F8924F" offset="100%"></stop>
        </linearGradient>
        <linearGradient x1="49.2286469%" y1="49.4130634%" x2="51.090027%" y2="50.365734%" id="linearGradient-23">
            <stop stop-color="#FFDB44" offset="0%"></stop>
            <stop stop-color="#FEEF06" offset="100%"></stop>
        </linearGradient>
        <linearGradient x1="-557.454921%" y1="44.122067%" x2="-555.57261%" y2="45.2786286%" id="linearGradient-24">
            <stop stop-color="#F36F56" offset="0%"></stop>
            <stop stop-color="#F99C4C" offset="31%"></stop>
            <stop stop-color="#FDB946" offset="55%"></stop>
            <stop stop-color="#FFC444" offset="68%"></stop>
            <stop stop-color="#FFC244" offset="80%"></stop>
            <stop stop-color="#FEBA46" offset="87%"></stop>
            <stop stop-color="#FCAD49" offset="92%"></stop>
            <stop stop-color="#F99A4D" offset="96%"></stop>
            <stop stop-color="#F68252" offset="100%"></stop>
            <stop stop-color="#F57E53" offset="100%"></stop>
        </linearGradient>
        <linearGradient x1="46.6315413%" y1="30.4871431%" x2="51.501028%" y2="58.5849812%" id="linearGradient-25">
            <stop stop-color="#AB316D" offset="0%"></stop>
            <stop stop-color="#792D3D" offset="100%"></stop>
        </linearGradient>
        <linearGradient x1="49.7834295%" y1="18.017214%" x2="69.1865122%" y2="187.711017%" id="linearGradient-26">
            <stop stop-color="#AB316D" offset="0%"></stop>
            <stop stop-color="#792D3D" offset="100%"></stop>
        </linearGradient>
        <linearGradient x1="19.2346463%" y1="68.9818924%" x2="104.077643%" y2="16.2614544%" id="linearGradient-27">
            <stop stop-color="#FFC444" offset="0%"></stop>
            <stop stop-color="#F36F56" offset="100%"></stop>
        </linearGradient>
        <linearGradient x1="-226.964764%" y1="339.071613%" x2="121.434351%" y2="-17.8429681%" id="linearGradient-28">
            <stop stop-color="#FFC444" offset="0%"></stop>
            <stop stop-color="#F36F56" offset="100%"></stop>
        </linearGradient>
        <linearGradient x1="132.324996%" y1="-115.090488%" x2="4.42246016%" y2="150.565323%" id="linearGradient-29">
            <stop stop-color="#311944" offset="0%"></stop>
            <stop stop-color="#893976" offset="100%"></stop>
        </linearGradient>
        <linearGradient x1="52.3183985%" y1="244.488639%" x2="48.3374643%" y2="-173.198494%" id="linearGradient-30">
            <stop stop-color="#FFC444" offset="0%"></stop>
            <stop stop-color="#F36F56" offset="100%"></stop>
        </linearGradient>
        <linearGradient x1="-988.31226%" y1="-155.890159%" x2="-860.418752%" y2="109.80309%" id="linearGradient-31">
            <stop stop-color="#311944" offset="0%"></stop>
            <stop stop-color="#893976" offset="100%"></stop>
        </linearGradient>
        <linearGradient x1="51.6095352%" y1="179.234545%" x2="47.627652%" y2="-238.452587%" id="linearGradient-32">
            <stop stop-color="#FFC444" offset="0%"></stop>
            <stop stop-color="#F36F56" offset="100%"></stop>
        </linearGradient>
        <linearGradient x1="100%" y1="50.0033406%" x2="0.000303103408%" y2="50.0033406%" id="linearGradient-33">
            <stop stop-color="#444B8C" offset="0%"></stop>
            <stop stop-color="#26264F" offset="100%"></stop>
        </linearGradient>
        <linearGradient x1="-1088.64166%" y1="49.9979122%" x2="-943.869213%" y2="49.9979122%" id="linearGradient-34">
            <stop stop-color="#444B8C" offset="0%"></stop>
            <stop stop-color="#26264F" offset="100%"></stop>
        </linearGradient>
        <linearGradient x1="-386.864864%" y1="49.9998212%" x2="-286.865404%" y2="49.9998212%" id="linearGradient-35">
            <stop stop-color="#444B8C" offset="0%"></stop>
            <stop stop-color="#26264F" offset="100%"></stop>
        </linearGradient>
        <linearGradient x1="-3.69026464%" y1="74.1791791%" x2="90.3933478%" y2="26.6080008%" id="linearGradient-36">
            <stop stop-color="#6165D7" offset="0%"></stop>
            <stop stop-color="#AA80F9" offset="100%"></stop>
        </linearGradient>
        <linearGradient x1="0.487762021%" y1="150.434429%" x2="60.7595396%" y2="25.1777805%" id="linearGradient-37">
            <stop stop-color="#6165D7" offset="0%"></stop>
            <stop stop-color="#AA80F9" offset="100%"></stop>
        </linearGradient>
        <linearGradient x1="-1.69375472%" y1="157.768374%" x2="66.795747%" y2="14.3150276%" id="linearGradient-38">
            <stop stop-color="#6165D7" offset="0%"></stop>
            <stop stop-color="#AA80F9" offset="100%"></stop>
        </linearGradient>
        <linearGradient x1="100%" y1="49.9922131%" x2="0%" y2="49.9922131%" id="linearGradient-39">
            <stop stop-color="#FFC444" offset="0%"></stop>
            <stop stop-color="#F36F56" offset="100%"></stop>
        </linearGradient>
        <linearGradient x1="55.7347046%" y1="85.6072282%" x2="48.4718733%" y2="39.1903807%" id="linearGradient-40">
            <stop stop-color="#311944" offset="10%"></stop>
            <stop stop-color="#371B47" offset="27%"></stop>
            <stop stop-color="#462150" offset="48%"></stop>
            <stop stop-color="#612A5F" offset="72%"></stop>
            <stop stop-color="#853774" offset="97%"></stop>
            <stop stop-color="#893976" offset="100%"></stop>
        </linearGradient>
        <linearGradient x1="-1789.80785%" y1="55.6147209%" x2="-1605.93198%" y2="246.008123%" id="linearGradient-41">
            <stop stop-color="#311944" offset="10%"></stop>
            <stop stop-color="#371B47" offset="27%"></stop>
            <stop stop-color="#462150" offset="48%"></stop>
            <stop stop-color="#612A5F" offset="72%"></stop>
            <stop stop-color="#853774" offset="97%"></stop>
            <stop stop-color="#893976" offset="100%"></stop>
        </linearGradient>
        <linearGradient x1="100%" y1="50%" x2="0.000985878469%" y2="50%" id="linearGradient-42">
            <stop stop-color="#FFC444" offset="0%"></stop>
            <stop stop-color="#F36F56" offset="100%"></stop>
        </linearGradient>
        <linearGradient x1="13.7752161%" y1="217.421956%" x2="186.570605%" y2="-529.142782%" id="linearGradient-43">
            <stop stop-color="#311944" offset="10%"></stop>
            <stop stop-color="#6D2F66" offset="69%"></stop>
            <stop stop-color="#893976" offset="100%"></stop>
        </linearGradient>
        <linearGradient x1="-43.114097%" y1="83.9611941%" x2="-77.3350786%" y2="30.6030842%" id="linearGradient-44">
            <stop stop-color="#311944" offset="0%"></stop>
            <stop stop-color="#893976" offset="100%"></stop>
        </linearGradient>
        <linearGradient x1="-28.6546899%" y1="9.71960813%" x2="-22.0294015%" y2="58.1728681%" id="linearGradient-45">
            <stop stop-color="#311944" offset="0%"></stop>
            <stop stop-color="#893976" offset="100%"></stop>
        </linearGradient>
        <linearGradient x1="-134.883339%" y1="-16.933516%" x2="-125.921898%" y2="79.5936966%" id="linearGradient-46">
            <stop stop-color="#311944" offset="10%"></stop>
            <stop stop-color="#6D2F66" offset="69%"></stop>
            <stop stop-color="#893976" offset="100%"></stop>
        </linearGradient>
        <linearGradient x1="-167.583345%" y1="34.2338462%" x2="-94.2536599%" y2="86.2253271%" id="linearGradient-47">
            <stop stop-color="#311944" offset="0%"></stop>
            <stop stop-color="#893976" offset="100%"></stop>
        </linearGradient>
        <linearGradient x1="-182.849884%" y1="49.8746954%" x2="-153.859238%" y2="49.3390609%" id="linearGradient-48">
            <stop stop-color="#311944" offset="10%"></stop>
            <stop stop-color="#6D2F66" offset="69%"></stop>
            <stop stop-color="#893976" offset="100%"></stop>
        </linearGradient>
        <linearGradient x1="-134.901607%" y1="96.1290943%" x2="-144.892085%" y2="42.326442%" id="linearGradient-49">
            <stop stop-color="#311944" offset="10%"></stop>
            <stop stop-color="#371B47" offset="27%"></stop>
            <stop stop-color="#462150" offset="48%"></stop>
            <stop stop-color="#612A5F" offset="72%"></stop>
            <stop stop-color="#853774" offset="97%"></stop>
            <stop stop-color="#893976" offset="100%"></stop>
        </linearGradient>
        <linearGradient x1="-130.035554%" y1="104.903752%" x2="-146.980711%" y2="35.7291246%" id="linearGradient-50">
            <stop stop-color="#311944" offset="0%"></stop>
            <stop stop-color="#893976" offset="100%"></stop>
        </linearGradient>
        <linearGradient x1="-158.833784%" y1="155.073255%" x2="160.127441%" y2="-2.64728615%" id="linearGradient-51">
            <stop stop-color="#FFC444" offset="0%"></stop>
            <stop stop-color="#F36F56" offset="100%"></stop>
        </linearGradient>
        <linearGradient x1="131.999591%" y1="22.413808%" x2="-193.580818%" y2="131.459169%" id="linearGradient-52">
            <stop stop-color="#FFC444" offset="0%"></stop>
            <stop stop-color="#F36F56" offset="100%"></stop>
        </linearGradient>
        <linearGradient x1="36.1662487%" y1="234.237094%" x2="51.6082047%" y2="22.0253615%" id="linearGradient-53">
            <stop stop-color="#FFC444" offset="0%"></stop>
            <stop stop-color="#F36F56" offset="100%"></stop>
        </linearGradient>
        <linearGradient x1="11.1011715%" y1="167.670265%" x2="64.493648%" y2="8.69861685%" id="linearGradient-54">
            <stop stop-color="#6165D7" offset="0%"></stop>
            <stop stop-color="#AA80F9" offset="100%"></stop>
        </linearGradient>
        <linearGradient x1="50.0057828%" y1="112.161447%" x2="50.0057828%" y2="-8.76534067%" id="linearGradient-55">
            <stop stop-color="#FFC444" offset="0%"></stop>
            <stop stop-color="#F36F56" offset="100%"></stop>
        </linearGradient>
        <linearGradient x1="5.07574272%" y1="173.914294%" x2="65.6257838%" y2="12.6246346%" id="linearGradient-56">
            <stop stop-color="#444B8C" offset="0%"></stop>
            <stop stop-color="#3E4177" offset="100%"></stop>
        </linearGradient>
        <linearGradient x1="184.554624%" y1="132.987932%" x2="-31.1472474%" y2="4.05709724%" id="linearGradient-57">
            <stop stop-color="#FFC444" offset="0%"></stop>
            <stop stop-color="#F36F56" offset="100%"></stop>
        </linearGradient>
        <linearGradient x1="32.6590944%" y1="-183.341529%" x2="62.330792%" y2="160.277846%" id="linearGradient-58">
            <stop stop-color="#444B8C" offset="0%"></stop>
            <stop stop-color="#26264F" offset="100%"></stop>
        </linearGradient>
        <linearGradient x1="49.9956789%" y1="66.2737621%" x2="49.9956789%" y2="-54.6464822%" id="linearGradient-59">
            <stop stop-color="#444B8C" offset="0%"></stop>
            <stop stop-color="#26264F" offset="100%"></stop>
        </linearGradient>
        <linearGradient x1="112.493074%" y1="52.6195607%" x2="0.763608029%" y2="47.5322754%" id="linearGradient-60">
            <stop stop-color="#FF9085" offset="0%"></stop>
            <stop stop-color="#FB6FBB" offset="100%"></stop>
        </linearGradient>
        <linearGradient x1="95.3295034%" y1="-26.3896065%" x2="4.94518232%" y2="106.3171%" id="linearGradient-61">
            <stop stop-color="#FFC444" offset="0%"></stop>
            <stop stop-color="#F36F56" offset="100%"></stop>
        </linearGradient>
        <linearGradient x1="0%" y1="50.0003417%" x2="100%" y2="50.0003417%" id="linearGradient-62">
            <stop stop-color="#EBEFF2" offset="49%"></stop>
            <stop stop-color="#FFFFFF" offset="100%"></stop>
        </linearGradient>
        <linearGradient x1="64.770742%" y1="-19.6037658%" x2="46.9557973%" y2="74.0779021%" id="linearGradient-63">
            <stop stop-color="#FF9085" offset="0%"></stop>
            <stop stop-color="#FB6FBB" offset="100%"></stop>
        </linearGradient>
        <linearGradient x1="62.7122865%" y1="14.2411788%" x2="19.2689584%" y2="117.601625%" id="linearGradient-64">
            <stop stop-color="#AA80F9" offset="0%"></stop>
            <stop stop-color="#6165D7" offset="100%"></stop>
        </linearGradient>
    </defs>
    <g id="Page-1" stroke="none" stroke-width="1" fill="none" fill-rule="evenodd">
        <g id="Asset-1-Copy" fill-rule="nonzero">
            <path d="M179,199 L179,205.30892 C179,207.347534 192.207636,209 208.5,209 C224.792364,209 238,207.347534 238,205.30892 L238,199 L179,199 Z" id="Path" fill="url(#linearGradient-1)"></path>
            <path d="M238,198.5 C238,200.43308 224.792364,202 208.5,202 C192.207636,202 179,200.43308 179,198.5 C179,196.56692 192.207636,195 208.5,195 C224.792364,195 238,196.563482 238,198.5 Z" id="Path" fill="url(#linearGradient-2)"></path>
            <path d="M208.498655,203 C194.080952,203 179,201.758153 179,199.363405 C179,199.231258 179.052609,199 179.198223,199 C179.343838,199 179.280895,199.181279 179.280895,199.312579 C179.280895,200.831427 191.27858,202.523931 208.497715,202.523931 C225.716851,202.523931 237.714536,200.829733 237.714536,199.312579 C237.714536,199.181279 237.739901,199.05845 237.885516,199.05845 C238.03113,199.05845 237.99637,199.234646 237.99637,199.365947 C237.993552,201.759848 222.916357,203 208.498655,203 Z" id="Path" fill="url(#linearGradient-3)"></path>
            <path d="M205.513693,198.693562 C205.798111,198.489396 206.101613,198.288101 206.424199,198.089677 C206.817489,197.860736 207.235254,197.680228 207.668988,197.551827 C208.29456,197.367894 208.933527,197.236988 209.579574,197.160402 C210.529923,197.048791 211.485801,196.995424 212.442219,197.000579 C213.562037,196.994836 214.613213,197.031841 215.595747,197.111594 C216.466299,197.175138 217.332263,197.294034 218.18875,197.467608 C218.815956,197.587095 219.427245,197.783385 220.009762,198.052353 C220.475173,198.28523 220.752203,198.551602 220.840853,198.851471 L224.103345,198.885924 C224.313122,198.88508 224.522486,198.905271 224.72851,198.946217 C224.913197,198.984498 224.999077,199.033307 225,199.092642 L225,199.371138 L220.805762,199.329028 C220.659244,199.669731 220.28433,199.981722 219.681019,200.265002 C219.077709,200.548283 218.311259,200.793282 217.381669,201 L215.854308,200.779883 C215.739269,200.763785 215.626055,200.735895 215.516332,200.696622 C215.423988,200.664083 215.386127,200.627716 215.386127,200.588478 C215.386127,200.54924 215.503404,200.473634 215.739803,200.404728 C215.976202,200.335822 216.243074,200.251604 216.539497,200.150159 C216.837748,200.048163 217.130044,199.928334 217.414912,199.791273 C217.700253,199.653461 217.890481,199.488852 217.989288,199.29649 L208.090074,199.195045 C207.809101,199.406366 207.517166,199.601573 207.215582,199.779789 C206.809143,200.005223 206.377831,200.178754 205.931085,200.296584 C205.277163,200.472855 204.611316,200.597624 203.939238,200.669825 C202.941283,200.776314 201.938525,200.82711 200.935307,200.821993 C200.028495,200.827097 199.143229,200.791687 198.27951,200.715763 C197.503765,200.653274 196.732666,200.539475 195.970925,200.37506 C195.400075,200.258132 194.845033,200.069815 194.317978,199.814242 C193.888581,199.590297 193.647565,199.335728 193.597699,199.048619 L190.911429,199.019908 C190.698698,199.020303 190.486367,199.000764 190.27703,198.96153 C190.092343,198.924205 190,198.875397 190,198.81319 L190,198.534695 L193.671574,198.571062 C193.834098,198.278211 194.167458,198.022685 194.67627,197.805439 C195.28051,197.557668 195.903898,197.363336 196.53976,197.224523 L197.769775,197.399659 C198.139148,197.45421 198.328452,197.517374 198.328452,197.591065 C198.328452,197.630303 198.253654,197.679112 198.098517,197.73749 C197.94338,197.795869 197.759617,197.865732 197.544457,197.94708 C197.33468,198.028408 197.130444,198.124329 196.933143,198.234188 C196.758911,198.321649 196.605857,198.448547 196.485278,198.605515 L205.513693,198.693562 Z M196.453881,199.076373 C196.527756,199.258208 196.692127,199.416118 196.942378,199.548188 C197.238699,199.697411 197.552091,199.807069 197.875046,199.874535 C198.289757,199.966993 198.709912,200.030935 199.132763,200.06594 C199.600021,200.104859 200.088518,200.123362 200.598253,200.121448 C201.118188,200.122373 201.637831,200.095861 202.155163,200.042015 C202.547211,200.000637 202.936203,199.93254 203.319614,199.838168 C203.619081,199.764204 203.911941,199.663994 204.195029,199.538618 C204.426835,199.433358 204.650368,199.309527 204.863596,199.168248 L196.453881,199.076373 Z M218.00591,198.826589 C217.932035,198.641882 217.751966,198.480144 217.472165,198.340418 C217.128907,198.180434 216.768789,198.062558 216.399135,197.989189 C215.89704,197.885145 215.389037,197.814499 214.878239,197.777686 C214.3014,197.731748 213.663923,197.710375 212.965807,197.713565 C212.430653,197.712595 211.895833,197.741347 211.363648,197.799697 C210.970961,197.843943 210.581822,197.917183 210.199198,198.018857 C209.91066,198.095417 209.630585,198.202863 209.36349,198.339461 C209.142052,198.456236 208.927722,198.586955 208.721703,198.730886 L218.00591,198.826589 Z" id="Shape" fill="#FCB048"></path>
            <path d="M207.945647,195 C194.834454,195 181.183481,196.22793 179,198.604988 C179.085103,198.688749 179.16493,198.778386 179.238965,198.873317 C181.079461,197.222444 192.351095,195.560599 207.945647,195.560599 C223.939411,195.560599 235.392846,197.309227 236.779778,199 C236.848131,198.906944 236.921671,198.818339 237,198.734663 C235.196051,196.274813 221.289246,195 207.945647,195 Z" id="Path" fill="url(#linearGradient-4)"></path>
            <path d="M171,192.00272 L171,198.309491 C171,200.347385 184.207847,202 200.50047,202 C216.793094,202 230,200.350104 230,198.309491 L230,192 L171,192.00272 Z" id="Path" fill="url(#linearGradient-5)"></path>
            <path d="M230,191.5 C230,193.43308 216.792364,195 200.5,195 C184.207636,195 171,193.43308 171,191.5 C171,189.56692 184.207636,188 200.5,188 C216.792364,188 230,189.56692 230,191.5 Z" id="Path" fill="url(#linearGradient-2)"></path>
            <path d="M200.494427,196 C186.076495,196 171,194.758153 171,192.363405 C171,192.231258 171.05167,192 171.197287,192 C171.342904,192 171.280899,192.181279 171.280899,192.312579 C171.280899,193.831427 183.277836,195.523931 200.498185,195.523931 C217.718534,195.523931 229.715471,193.829733 229.715471,192.312579 C229.715471,192.181279 229.739897,192.05845 229.885514,192.05845 C230.03113,192.05845 229.99637,192.234646 229.99637,192.365947 C229.988855,194.756459 214.912359,196 200.494427,196 Z" id="Path" fill="url(#linearGradient-6)"></path>
            <path d="M197.515026,192.693562 C197.799451,192.489715 198.101422,192.288739 198.425556,192.089677 C198.818774,191.860562 199.23657,191.680045 199.670378,191.551827 C200.295651,191.367887 200.934329,191.236981 201.58009,191.160402 C202.530469,191.048849 203.486369,190.995482 204.442812,191.000579 C205.562659,190.994836 206.613862,191.031841 207.596422,191.111594 C208.46728,191.174862 209.333572,191.293437 210.190417,191.466651 C210.817404,191.586351 211.428414,191.782968 212.010554,192.052353 C212.475977,192.284592 212.753014,192.550964 212.841666,192.851471 L216.104245,192.885924 C216.314046,192.884646 216.523456,192.904841 216.729427,192.946217 C216.914118,192.984498 217,193.033307 217,193.092642 L217,193.370181 L212.806575,193.329028 C212.658822,193.669731 212.283898,193.981722 211.681803,194.265002 C211.079708,194.548283 210.312929,194.793282 209.381468,195 L207.854067,194.779883 C207.739386,194.763452 207.626507,194.735569 207.517005,194.696622 C207.424659,194.664083 207.385874,194.627716 207.385874,194.588478 C207.385874,194.534884 207.504076,194.473634 207.740482,194.404728 C207.976887,194.335822 208.242843,194.250647 208.540197,194.150159 C208.838337,194.047823 209.130622,193.928001 209.415635,193.791273 C209.700061,193.653461 209.890293,193.488852 209.990027,193.29649 L200.089628,193.195045 C199.808789,193.406581 199.516835,193.601796 199.215113,193.779789 C198.808997,194.005245 198.377976,194.178779 197.931506,194.296584 C197.277234,194.472759 196.611069,194.597527 195.938682,194.669825 C194.940942,194.775384 193.938513,194.826177 192.935595,194.821993 C192.027836,194.821993 191.145009,194.790411 190.279729,194.714806 C189.503936,194.653075 188.732789,194.539591 187.971083,194.37506 C187.399803,194.25813 186.844404,194.069481 186.317168,193.813285 C185.886221,193.590616 185.646122,193.335409 185.596871,193.047662 L182.911454,193.019908 C182.698716,193.020303 182.48638,193.000764 182.277038,192.96153 C182.092346,192.924205 182,192.875397 182,192.81319 L182,192.534695 L185.672594,192.571062 C185.835123,192.278211 186.167568,192.022685 186.676394,191.805439 C187.280688,191.557785 187.904083,191.363456 188.539933,191.224523 L189.76998,191.399659 C190.139363,191.45421 190.324055,191.517374 190.329596,191.591065 C190.329596,191.630303 190.253872,191.679112 190.099654,191.73749 C189.945437,191.795869 189.759822,191.865732 189.545579,191.94708 C189.335425,192.028224 189.130865,192.12415 188.933326,192.234188 C188.759423,192.32177 188.60669,192.44866 188.486372,192.605515 L197.515026,192.693562 Z M188.454975,193.076373 C188.528851,193.259165 188.693227,193.416118 188.942561,193.549145 C189.239216,193.698358 189.55292,193.808014 189.876177,193.875492 C190.290575,193.968024 190.710439,194.031967 191.133004,194.066897 C191.600274,194.106455 192.089092,194.124957 192.599456,194.122405 C193.119098,194.123357 193.638448,194.096845 194.155484,194.042972 C194.547553,194.001677 194.936561,193.933579 195.319965,193.839125 C195.619474,193.764869 195.912343,193.664338 196.195404,193.538618 C196.427592,193.43353 196.65145,193.309692 196.864911,193.168248 L188.454975,193.076373 Z M210.006649,192.827546 C209.932772,192.642839 209.752698,192.481101 209.47289,192.341375 C209.129674,192.181251 208.76953,192.063371 208.399831,191.990146 C207.8978,191.885625 207.389754,191.814976 206.878895,191.778643 C206.302041,191.732705 205.664547,191.711332 204.966412,191.714522 C204.431245,191.71358 203.896413,191.742332 203.364212,191.800654 C202.971818,191.844894 202.582975,191.918134 202.200654,192.019814 C201.911637,192.095792 201.63119,192.203259 201.364001,192.340418 C201.142549,192.456616 200.928486,192.587357 200.723121,192.731843 L210.006649,192.827546 Z" id="Shape" fill="#FCB048"></path>
            <path d="M200.945647,189 C187.835391,189 174.183481,190.22793 172,192.604988 C172.085104,192.688394 172.164933,192.777699 172.238965,192.872319 C174.079461,191.222444 185.351095,189.560599 200.945647,189.560599 C216.940348,189.560599 228.392846,191.309227 229.779778,193 C229.848131,192.906944 229.921671,192.818339 230,192.734663 C228.196051,190.273815 214.289246,189 200.945647,189 Z" id="Path" fill="url(#linearGradient-7)"></path>
            <path d="M178,185 L178,191.30892 C178,193.347534 191.207636,195 207.5,195 C223.792364,195 237,193.347534 237,191.30892 L237,185 L178,185 Z" id="Path" fill="url(#linearGradient-1)"></path>
            <path d="M237,185.5 C237,187.43308 223.792364,189 207.5,189 C191.207636,189 178,187.43308 178,185.5 C178,183.56692 191.207636,182 207.5,182 C223.792364,182 237,183.56692 237,185.5 Z" id="Path" fill="url(#linearGradient-8)"></path>
            <path d="M207.498655,189 C193.080952,189 178,187.75789 178,185.362635 C178,185.23046 178.05167,185 178.198223,185 C178.344777,185 178.280895,185.18047 178.280895,185.311798 C178.280895,186.830968 190.27858,188.52383 207.497715,188.52383 C224.716851,188.52383 236.714536,186.829273 236.714536,185.311798 C236.714536,185.18047 236.739901,185.057615 236.885516,185.057615 C237.03113,185.057615 236.99637,185.233001 236.99637,185.36433 C236.993552,187.759585 221.919176,189 207.498655,189 Z" id="Path" fill="url(#linearGradient-9)"></path>
            <path d="M204.514617,185.693562 C204.799034,185.490034 205.102536,185.288739 205.425123,185.089677 C205.818276,184.860686 206.236083,184.680481 206.669912,184.552784 C207.29527,184.367935 207.934311,184.237014 208.580497,184.161359 C209.530784,184.048887 210.486693,183.995198 211.443143,184.000579 C212.562345,183.994836 213.613521,184.031841 214.59667,184.111594 C215.467176,184.175611 216.333112,184.294503 217.189673,184.467608 C217.816847,184.587235 218.428119,184.783521 219.010685,185.052353 C219.476096,185.285868 219.753126,185.552559 219.841776,185.852428 L223.104269,185.885924 C223.314044,185.885127 223.523403,185.905319 223.729434,185.946217 C223.914121,185.984498 224,186.033307 224,186.092642 L224,186.371138 L219.805762,186.329028 C219.659244,186.669731 219.28433,186.981722 218.681019,187.265002 C218.077709,187.548283 217.311259,187.793282 216.381669,188 L214.854308,187.779883 C214.739309,187.764053 214.6261,187.736484 214.516332,187.697579 C214.423988,187.664083 214.386127,187.627716 214.385204,187.588478 C214.384281,187.54924 214.503404,187.473634 214.739803,187.405685 C214.976202,187.337736 215.243074,187.251604 215.539497,187.150159 C215.837748,187.048163 216.130044,186.928334 216.414912,186.791273 C216.69933,186.653461 216.890789,186.488852 216.989288,186.297447 L207.090074,186.195045 C206.809321,186.406698 206.517368,186.601918 206.215582,186.779789 C205.809143,187.005223 205.377831,187.178754 204.931085,187.296584 C204.277126,187.47268 203.611292,187.597447 202.939238,187.669825 C201.941283,187.776314 200.938525,187.82711 199.935307,187.821993 C199.028495,187.827097 198.143229,187.791687 197.27951,187.715763 C196.503765,187.653274 195.732666,187.539475 194.970925,187.37506 C194.399822,187.25796 193.844493,187.069651 193.317055,186.814242 C192.888581,186.591254 192.647565,186.335728 192.597699,186.048619 L189.911429,186.019908 C189.698698,186.020303 189.486367,186.000764 189.27703,185.96153 C189.092343,185.925163 189,185.875397 189,185.81319 L189,185.535652 L192.671574,185.571062 C192.834098,185.278211 193.166535,185.022685 193.675347,184.805439 C194.279451,184.557025 194.902866,184.362364 195.538837,184.223566 L196.768851,184.398702 C197.142842,184.453253 197.328452,184.517374 197.328452,184.590108 C197.328452,184.629346 197.252731,184.678155 197.098517,184.736533 C196.944304,184.794912 196.759617,184.864775 196.544457,184.946123 C196.334841,185.027854 196.130631,185.123764 195.933143,185.233231 C195.758911,185.320692 195.605857,185.44759 195.485278,185.604558 L204.514617,185.693562 Z M195.454804,186.076373 C195.528679,186.258208 195.69305,186.416118 195.942378,186.548188 C196.239025,186.697401 196.552721,186.807057 196.87597,186.874535 C197.290368,186.966998 197.710217,187.03094 198.132763,187.06594 C198.601252,187.106136 199.090057,187.124957 199.599177,187.122405 C200.118821,187.123084 200.63816,187.096253 201.155163,187.042015 C201.547232,187.0008 201.936235,186.932702 202.319614,186.838168 C202.61942,186.764346 202.912597,186.664132 203.195953,186.538618 C203.427758,186.433358 203.651291,186.309527 203.864519,186.168248 L195.454804,186.076373 Z M217.00591,185.827546 C216.932959,185.641882 216.752889,185.480144 216.473088,185.340418 C216.129939,185.180358 215.769775,185.062789 215.400058,184.990146 C214.897745,184.885337 214.389407,184.814368 213.878239,184.777686 C213.302016,184.731748 212.664846,184.710375 211.96673,184.713565 C211.431576,184.712595 210.896757,184.741347 210.364572,184.799697 C209.971885,184.843943 209.582746,184.917183 209.200121,185.018857 C208.911583,185.095417 208.631508,185.202863 208.364413,185.339461 C208.142975,185.456236 207.928645,185.586955 207.722627,185.730886 L217.00591,185.827546 Z" id="Shape" fill="#FCB048"></path>
            <path d="M207.945178,182 C194.834709,182 181.183516,183.22793 179,185.604988 C179.085104,185.688749 179.164933,185.778386 179.238969,185.873317 C181.078557,184.222444 192.351311,182.560599 207.945178,182.560599 C223.940137,182.560599 235.39282,184.309227 236.780711,186 C236.848744,185.906955 236.921973,185.81835 237,185.734663 C235.196959,183.273815 221.288992,182 207.945178,182 Z" id="Path" fill="url(#linearGradient-10)"></path>
            <path d="M182,179.003626 L182,185.30892 C182,187.347534 195.206906,189 211.49953,189 C227.792153,189 241,187.347534 241,185.30892 L241,179 L182,179.003626 Z" id="Path" fill="url(#linearGradient-11)"></path>
            <ellipse id="Oval" fill="url(#linearGradient-2)" cx="211.5" cy="178.5" rx="29.5" ry="3.5"></ellipse>
            <path d="M211.498655,182 C197.080952,182 182,180.758153 182,178.363405 C182,178.231258 182.052609,178 182.198223,178 C182.343838,178 182.280895,178.181279 182.280895,178.312579 C182.280895,179.831427 194.27858,181.523931 211.497715,181.523931 C228.716851,181.523931 240.714536,179.829733 240.714536,178.312579 C240.714536,178.181279 240.739901,178.05845 240.885516,178.05845 C241.03113,178.05845 240.99637,178.234646 240.99637,178.365947 C240.993552,180.757306 225.916357,182 211.498655,182 Z" id="Path" fill="url(#linearGradient-12)"></path>
            <path d="M209.513693,178.693562 C209.798111,178.489396 210.101613,178.288101 210.424199,178.089677 C210.817489,177.860736 211.235254,177.680228 211.668988,177.551827 C212.29456,177.367894 212.933527,177.236988 213.579574,177.160402 C214.529923,177.048791 215.485801,176.995424 216.442219,177.000579 C217.562037,176.994836 218.613213,177.031841 219.595747,177.111594 C220.466299,177.175138 221.332263,177.294034 222.18875,177.467608 C222.815956,177.587095 223.427245,177.783385 224.009762,178.052353 C224.475173,178.28523 224.752203,178.551602 224.840853,178.851471 L228.103345,178.885924 C228.313426,178.885131 228.523091,178.905322 228.729434,178.946217 C228.914121,178.984498 228.999077,179.033307 229,179.092642 L229,179.371138 L224.805762,179.329028 C224.659244,179.669731 224.28433,179.981722 223.681019,180.265002 C223.077709,180.548283 222.311259,180.793282 221.381669,181 L219.854308,180.779883 C219.739547,180.763918 219.626627,180.736023 219.517255,180.696622 C219.424912,180.664083 219.386127,180.627716 219.386127,180.588478 C219.386127,180.54924 219.503404,180.473634 219.739803,180.405685 C219.976202,180.337736 220.243074,180.251604 220.54042,180.150159 C220.838309,180.047987 221.130287,179.928161 221.414912,179.791273 C221.700253,179.653461 221.890481,179.488852 221.989288,179.29649 L212.090074,179.195045 C211.809101,179.406366 211.517166,179.601573 211.215582,179.779789 C210.809143,180.005223 210.377831,180.178754 209.931085,180.296584 C209.277163,180.472855 208.611316,180.597624 207.939238,180.669825 C206.941283,180.776314 205.938525,180.82711 204.935307,180.821993 C204.028495,180.827097 203.143229,180.791687 202.27951,180.715763 C201.503765,180.653274 200.732666,180.539475 199.970925,180.37506 C199.399916,180.258295 198.844818,180.069638 198.317978,179.813285 C197.888581,179.590297 197.647565,179.334771 197.597699,179.047662 L194.911429,179.018951 C194.698698,179.019346 194.486367,178.999807 194.27703,178.960573 C194.092343,178.923248 194,178.87444 194,178.812233 L194,178.52991 L197.671574,178.566277 C197.834098,178.273426 198.167458,178.0179 198.67627,177.800654 C199.28051,177.552883 199.903898,177.358551 200.53976,177.219738 L201.769775,177.394874 C202.139148,177.449425 202.328452,177.512589 202.328452,177.58628 C202.328452,177.625518 202.253654,177.674326 202.098517,177.732705 C201.94338,177.791084 201.759617,177.860947 201.544457,177.942294 C201.33468,178.023623 201.130444,178.119544 200.933143,178.229403 C200.758911,178.316864 200.605857,178.443762 200.485278,178.60073 L209.513693,178.693562 Z M200.453881,179.076373 C200.527756,179.258208 200.692127,179.415161 200.942378,179.548188 C201.238756,179.697268 201.552129,179.80692 201.875046,179.874535 C202.289757,179.966993 202.709912,180.030935 203.132763,180.06594 C203.600021,180.106136 204.088518,180.124638 204.598253,180.121448 C205.118188,180.122373 205.637831,180.095861 206.155163,180.042015 C206.547211,180.000637 206.936203,179.93254 207.319614,179.838168 C207.619081,179.764204 207.911941,179.663994 208.195029,179.538618 C208.426835,179.433358 208.650368,179.309527 208.863596,179.168248 L200.453881,179.076373 Z M222.00591,178.826589 C221.932035,178.641882 221.751966,178.480144 221.472165,178.340418 C221.128958,178.180294 220.768824,178.062414 220.399135,177.989189 C219.89704,177.885145 219.389037,177.814499 218.878239,177.777686 C218.3014,177.731748 217.663923,177.710375 216.965807,177.713565 C216.430653,177.712623 215.895835,177.741375 215.363648,177.799697 C214.970961,177.843943 214.581822,177.917183 214.199198,178.018857 C213.91066,178.095417 213.630585,178.202863 213.36349,178.339461 C213.142052,178.456236 212.927722,178.586955 212.721703,178.730886 L222.00591,178.826589 Z" id="Shape" fill="#FCB048"></path>
            <path d="M211.945647,175 C198.834454,175 185.183481,176.22793 183,178.604988 C183.085103,178.688749 183.16493,178.778386 183.238965,178.873317 C185.079461,177.222444 196.351095,175.560599 211.945647,175.560599 C227.939411,175.560599 239.392846,177.309227 240.779778,179 C240.848131,178.906944 240.921671,178.818339 241,178.734663 C239.195114,176.273815 225.289246,175 211.945647,175 Z" id="Path" fill="url(#linearGradient-13)"></path>
            <path d="M179,171 L179,177.30892 C179,179.347534 192.207636,181 208.5,181 C224.792364,181 238,179.347534 238,177.30892 L238,171 L179,171 Z" id="Path" fill="url(#linearGradient-1)"></path>
            <path d="M238,171.5 C238,173.43308 224.792364,175 208.5,175 C192.207636,175 179,173.43308 179,171.5 C179,169.56692 192.207636,168 208.5,168 C224.792364,168 238,169.56778 238,171.5 Z" id="Path" fill="url(#linearGradient-14)"></path>
            <path d="M208.498655,175 C194.080952,175 179,173.75789 179,171.362635 C179,171.231307 179.052609,171 179.198223,171 C179.343838,171 179.280895,171.18047 179.280895,171.311798 C179.280895,172.830968 191.27858,174.52383 208.497715,174.52383 C225.716851,174.52383 237.714536,172.829273 237.714536,171.311798 C237.714536,171.18047 237.739901,171.057615 237.885516,171.057615 C238.03113,171.057615 237.99637,171.233001 237.99637,171.36433 C237.993552,173.759585 222.916357,175 208.498655,175 Z" id="Path" fill="url(#linearGradient-9)"></path>
            <path d="M205.513693,171.693562 C205.798111,171.490034 206.101613,171.289058 206.424199,171.090634 C206.817112,170.860893 207.23497,170.680344 207.668988,170.552784 C208.294347,170.367935 208.933387,170.237014 209.579574,170.161359 C210.529861,170.048887 211.48577,169.995198 212.442219,170.000579 C213.562037,169.994836 214.613213,170.031841 215.595747,170.111594 C216.466252,170.175611 217.332189,170.294503 218.18875,170.467608 C218.815956,170.587095 219.427245,170.783385 220.009762,171.052353 C220.475173,171.285868 220.752203,171.552559 220.840853,171.852428 L224.103345,171.885924 C224.313122,171.88508 224.522486,171.905271 224.72851,171.946217 C224.913197,171.984498 224.999077,172.033307 225,172.092642 L225,172.371138 L220.805762,172.329028 C220.659244,172.669731 220.28433,172.981722 219.681019,173.265002 C219.077709,173.548283 218.311259,173.793282 217.381669,174 L215.854308,173.779883 C215.739391,173.763593 215.626224,173.736034 215.516332,173.697579 C215.423988,173.664083 215.386127,173.627716 215.386127,173.588478 C215.386127,173.534884 215.503404,173.473634 215.739803,173.405685 C215.976202,173.337736 216.243074,173.251604 216.539497,173.150159 C216.837748,173.048163 217.130044,172.928334 217.414912,172.791273 C217.700253,172.653461 217.890481,172.488852 217.989288,172.297447 L208.090074,172.195045 C207.809321,172.406698 207.517368,172.601918 207.215582,172.779789 C206.809143,173.005223 206.377831,173.178754 205.931085,173.296584 C205.277163,173.472855 204.611316,173.597624 203.939238,173.669825 C202.941283,173.776314 201.938525,173.82711 200.935307,173.821993 C200.028495,173.827097 199.143229,173.791687 198.27951,173.715763 C197.503765,173.653274 196.732666,173.539475 195.970925,173.37506 C195.400075,173.258132 194.845033,173.069815 194.317978,172.814242 C193.888581,172.591254 193.647565,172.335728 193.597699,172.048619 L190.911429,172.019908 C190.698698,172.020303 190.486367,172.000764 190.27703,171.96153 C190.092343,171.925163 190,171.875397 190,171.814147 L190,171.535652 L193.671574,171.572019 C193.834098,171.278211 194.167458,171.022685 194.67627,170.806396 C195.280657,170.559063 195.904008,170.364742 196.53976,170.22548 L197.769775,170.400616 C198.139148,170.455167 198.328452,170.519288 198.328452,170.592022 C198.328452,170.63126 198.253654,170.680069 198.098517,170.738447 C197.94338,170.796826 197.759617,170.866689 197.544457,170.948037 C197.334841,171.029768 197.130631,171.125678 196.933143,171.235145 C196.758911,171.322606 196.605857,171.449504 196.485278,171.606472 L205.513693,171.693562 Z M196.453881,172.076373 C196.527756,172.259165 196.692127,172.416118 196.942378,172.548188 C197.238699,172.697411 197.552091,172.807069 197.875046,172.874535 C198.289757,172.966993 198.709912,173.030935 199.132763,173.06594 C199.600021,173.106136 200.088518,173.124957 200.598253,173.122405 C201.118205,173.123055 201.637849,173.096224 202.155163,173.042015 C202.547211,173.000637 202.936203,172.93254 203.319614,172.838168 C203.619081,172.764204 203.911941,172.663994 204.195029,172.538618 C204.426835,172.433358 204.650368,172.309527 204.863596,172.168248 L196.453881,172.076373 Z M218.00591,171.827546 C217.932035,171.641882 217.751966,171.480144 217.472165,171.340418 C217.129015,171.180358 216.768852,171.062789 216.399135,170.990146 C215.897193,170.885155 215.389131,170.814501 214.878239,170.778643 C214.3014,170.731429 213.663923,170.710056 212.965807,170.714522 C212.430659,170.712803 211.895817,170.741237 211.363648,170.799697 C210.970961,170.843943 210.581822,170.917183 210.199198,171.018857 C209.91066,171.095417 209.630585,171.202863 209.36349,171.339461 C209.142052,171.456236 208.927722,171.586955 208.721703,171.730886 L218.00591,171.827546 Z" id="Shape" fill="#FCB048"></path>
            <path d="M207.945647,167 C194.834454,167 181.183481,168.22793 179,170.604988 C179.084876,170.688993 179.164689,170.778614 179.238965,170.873317 C181.079461,169.222444 192.351095,167.560599 207.945647,167.560599 C223.939411,167.560599 235.392846,169.309227 236.779778,171 C236.848131,170.906944 236.921671,170.818339 237,170.734663 C235.196051,168.270823 221.289246,167 207.945647,167 Z" id="Path" fill="url(#linearGradient-15)"></path>
            <path d="M171,165 L171,171.30892 C171,173.347534 184.207847,175 200.50047,175 C216.793094,175 230,173.347534 230,171.30892 L230,165 L171,165 Z" id="Path" fill="url(#linearGradient-16)"></path>
            <ellipse id="Oval" fill="url(#linearGradient-17)" cx="200.5" cy="163.5" rx="29.5" ry="3.5"></ellipse>
            <path d="M200.494427,169 C186.076495,169 171,167.758153 171,165.363405 C171,165.231258 171.05167,165 171.197287,165 C171.342904,165 171.280899,165.181279 171.280899,165.312579 C171.280899,166.831427 183.277836,168.523931 200.498185,168.523931 C217.718534,168.523931 229.715471,166.829733 229.715471,165.312579 C229.715471,165.181279 229.739897,165.05845 229.885514,165.05845 C230.03113,165.05845 229.99637,165.234646 229.99637,165.365947 C229.988855,167.759848 214.912359,169 200.494427,169 Z" id="Path" fill="url(#linearGradient-18)"></path>
            <path d="M197.515026,164.693562 C197.799451,164.489715 198.101422,164.288739 198.425556,164.089677 C198.818774,163.860562 199.23657,163.680045 199.670378,163.551827 C200.295651,163.367887 200.934329,163.236981 201.58009,163.160402 C202.530469,163.048849 203.486369,162.995482 204.442812,163.000579 C205.562659,162.994836 206.613862,163.031841 207.596422,163.111594 C208.467302,163.175143 209.333596,163.294038 210.190417,163.467608 C210.817348,163.587071 211.428349,163.783364 212.010554,164.052353 C212.475977,164.284592 212.753014,164.550964 212.841666,164.851471 L216.104245,164.885924 C216.314026,164.885127 216.52339,164.905319 216.729427,164.946217 C216.914118,164.984498 217,165.033307 217,165.092642 L217,165.371138 L212.806575,165.329028 C212.658822,165.669731 212.283898,165.981722 211.681803,166.265002 C211.079708,166.548283 210.312929,166.793282 209.381468,167 L207.854067,166.779883 C207.739425,166.763723 207.62655,166.736161 207.517005,166.697579 C207.424659,166.664083 207.385874,166.627716 207.385874,166.588478 C207.385874,166.54924 207.504076,166.473634 207.740482,166.404728 C207.976887,166.335822 208.242843,166.251604 208.540197,166.150159 C208.838337,166.047823 209.130622,165.928001 209.415635,165.791273 C209.700061,165.653461 209.890293,165.488852 209.990027,165.29649 L200.090552,165.196959 C199.809713,165.408495 199.517758,165.60371 199.216037,165.781703 C198.809921,166.007159 198.378899,166.180693 197.932429,166.298498 C197.278157,166.474673 196.611992,166.599441 195.939606,166.671739 C194.941629,166.778291 193.938842,166.829087 192.935595,166.823907 C192.027836,166.823907 191.145009,166.793282 190.279729,166.717677 C189.503963,166.655188 188.732843,166.541389 187.971083,166.376975 C187.399964,166.259874 186.844621,166.071565 186.317168,165.816156 C185.886221,165.592849 185.646122,165.337642 185.596871,165.050533 L182.911454,165.021822 C182.698716,165.022217 182.48638,165.002678 182.277038,164.963444 C182.092346,164.92612 182,164.877311 182,164.815104 L182,164.536609 L185.672594,164.572976 C185.835123,164.280125 186.167568,164.024599 186.676394,163.807353 C187.280688,163.559699 187.904083,163.36537 188.539933,163.226437 L189.76998,163.401573 C190.139363,163.456124 190.324055,163.519288 190.329596,163.592979 C190.329596,163.632217 190.253872,163.681026 190.099654,163.739404 C189.945437,163.797783 189.759822,163.867646 189.545579,163.948994 C189.335425,164.030138 189.130865,164.126064 188.933326,164.236102 C188.759423,164.323684 188.60669,164.450574 188.486372,164.607429 L197.515026,164.693562 Z M188.454975,165.076373 C188.528851,165.258208 188.693227,165.415161 188.942561,165.548188 C189.239216,165.697401 189.55292,165.807057 189.876177,165.874535 C190.290575,165.967067 190.710439,166.03101 191.133004,166.06594 C191.600274,166.106136 192.089092,166.124638 192.599456,166.121448 C193.119098,166.1224 193.638448,166.095888 194.155484,166.042015 C194.547553,166.00072 194.936561,165.932622 195.319965,165.838168 C195.619441,165.764204 195.912308,165.663994 196.195404,165.538618 C196.427412,165.433147 196.651243,165.309325 196.864911,165.168248 L188.454975,165.076373 Z M210.006649,164.826589 C209.932772,164.641882 209.752698,164.480144 209.47289,164.340418 C209.129783,164.180216 208.769594,164.062641 208.399831,163.990146 C207.897829,163.885256 207.389779,163.814286 206.878895,163.777686 C206.302041,163.731748 205.664547,163.710375 204.966412,163.713565 C204.431245,163.712623 203.896413,163.741375 203.364212,163.799697 C202.971818,163.843937 202.582975,163.917177 202.200654,164.018857 C201.911767,164.095268 201.631363,164.202718 201.364001,164.339461 C201.14274,164.45602 200.928699,164.586748 200.723121,164.730886 L210.006649,164.826589 Z" id="Shape" fill="#FCB048"></path>
            <path d="M200.943309,161 C187.834112,161 174.183305,162.227318 172,164.60319 C172.08677,164.68703 172.168163,164.776963 172.243631,164.872383 C174.083978,163.22333 185.354702,161.562313 200.947994,161.562313 C216.941403,161.562313 228.392975,163.31007 229.779795,165 C229.848143,164.90699 229.921677,164.818429 230,164.734796 C228.191512,162.27318 214.28583,161 200.943309,161 Z" id="Path" fill="url(#linearGradient-19)"></path>
            <path d="M178,157 L178,163.308585 C178,165.347385 191.207636,167 207.5,167 C223.792364,167 237,165.347385 237,163.308585 L237,157 L178,157 Z" id="Path" fill="url(#linearGradient-20)"></path>
            <ellipse id="Oval" fill="url(#linearGradient-14)" cx="207.5" cy="157.5" rx="29.5" ry="3.5"></ellipse>
            <path d="M207.498655,162 C193.080952,162 178,160.75789 178,158.362635 C178,158.231307 178.05167,158 178.198223,158 C178.344777,158 178.280895,158.18047 178.280895,158.312646 C178.280895,159.831815 190.27858,161.52383 207.497715,161.52383 C224.716851,161.52383 236.714536,159.829273 236.714536,158.312646 C236.714536,158.18047 236.739901,158.058462 236.885516,158.058462 C237.03113,158.058462 236.99637,158.233849 236.99637,158.365177 C236.993552,160.760432 221.919176,162 207.498655,162 Z" id="Path" fill="url(#linearGradient-9)"></path>
            <path d="M204.514617,157.693562 C204.799034,157.490034 205.102536,157.289058 205.425123,157.090634 C205.818036,156.860893 206.235894,156.680344 206.669912,156.552784 C207.29527,156.367935 207.934311,156.237014 208.580497,156.161359 C209.530784,156.048887 210.486693,155.995198 211.443143,156.000579 C212.562345,155.994836 213.613521,156.031841 214.59667,156.111594 C215.467176,156.175611 216.333112,156.294503 217.189673,156.467608 C217.817001,156.587057 218.428329,156.783682 219.010685,157.05331 C219.476096,157.285549 219.753126,157.551921 219.841776,157.852428 L223.104269,157.886881 C223.314032,157.885325 223.523433,157.905199 223.729434,157.946217 C223.914121,157.984498 224,158.033307 224,158.092642 L224,158.371138 L219.805762,158.329028 C219.659244,158.669731 219.28433,158.981722 218.681019,159.265002 C218.077709,159.548283 217.311259,159.793282 216.381669,160 L214.854308,159.779883 C214.739309,159.764053 214.6261,159.736484 214.516332,159.697579 C214.423988,159.664083 214.386127,159.627716 214.385204,159.588478 C214.385204,159.534884 214.503404,159.473634 214.739803,159.405685 C214.976202,159.337736 215.243074,159.251604 215.539497,159.150159 C215.837748,159.048163 216.130044,158.928334 216.414912,158.791273 C216.69933,158.653461 216.890789,158.488852 216.989288,158.297447 L207.090074,158.195045 C206.809321,158.406698 206.517368,158.601918 206.215582,158.779789 C205.809327,159.005637 205.377965,159.179188 204.931085,159.296584 C204.277126,159.47268 203.611292,159.597447 202.939238,159.669825 C201.941283,159.776314 200.938525,159.82711 199.935307,159.821993 C199.028495,159.827097 198.143229,159.791687 197.27951,159.715763 C196.503715,159.653742 195.732587,159.539939 194.970925,159.37506 C194.399822,159.25796 193.844493,159.069651 193.317055,158.814242 C192.888581,158.591254 192.647565,158.335728 192.597699,158.048619 L189.911429,158.019908 C189.698746,158.02011 189.48646,158.000895 189.27703,157.962487 C189.092343,157.925163 189,157.875397 189,157.814147 L189,157.535652 L192.671574,157.572019 C192.834098,157.278211 193.166535,157.022685 193.675347,156.806396 C194.27948,156.558307 194.902894,156.363967 195.538837,156.22548 L196.768851,156.399659 C197.142842,156.45421 197.328452,156.518331 197.328452,156.591065 C197.328452,156.630303 197.252731,156.679112 197.098517,156.73749 L196.544457,156.94708 C196.334841,157.028811 196.130631,157.124721 195.933143,157.234188 C195.758911,157.321649 195.605857,157.448547 195.485278,157.605515 L204.514617,157.693562 Z M195.454804,158.076373 C195.528679,158.259165 195.69305,158.416118 195.942378,158.548188 C196.238858,158.697825 196.552607,158.807499 196.87597,158.874535 C197.290287,158.967466 197.710165,159.031412 198.132763,159.06594 C198.601252,159.106136 199.090057,159.124957 199.599177,159.122405 C200.118833,159.123564 200.638195,159.096731 201.155163,159.042015 C201.547232,159.0008 201.936235,158.932702 202.319614,158.838168 C202.61942,158.764346 202.912597,158.664132 203.195953,158.538618 C203.427758,158.433358 203.651291,158.309527 203.864519,158.168248 L195.454804,158.076373 Z M217.00591,157.827546 C216.932959,157.641882 216.752889,157.480144 216.473088,157.340418 C216.129781,157.180787 215.769667,157.063234 215.400058,156.990146 C214.897718,156.885696 214.389383,156.815047 213.878239,156.778643 C213.302016,156.732067 212.664846,156.710694 211.96673,156.714522 C211.431553,156.712591 210.896683,156.741346 210.364572,156.800654 C209.971819,156.844432 209.582648,156.917677 209.200121,157.019814 C208.911494,157.095652 208.631379,157.202792 208.364413,157.339461 C208.142975,157.456236 207.928645,157.586955 207.722627,157.730886 L217.00591,157.827546 Z" id="Shape" fill="#FCB048"></path>
            <path d="M207.945178,154 C194.834709,154 181.183516,155.22793 179,157.605985 C179.085094,157.689403 179.164924,157.778708 179.238969,157.873317 C181.078557,156.222444 192.351311,154.560599 207.945178,154.560599 C223.940137,154.560599 235.39282,156.309227 236.780711,158 C236.848744,157.906955 236.921973,157.81835 237,157.734663 C235.196959,155.269825 221.288992,154 207.945178,154 Z" id="Path" fill="url(#linearGradient-21)"></path>
            <path d="M174,151 L174,157.30892 C174,159.347534 187.206906,161 203.49953,161 C219.792153,161 233,159.347534 233,157.30892 L233,151 L174,151 Z" id="Path" fill="url(#linearGradient-22)"></path>
            <ellipse id="Oval" fill="url(#linearGradient-14)" cx="203.5" cy="150.5" rx="29.5" ry="3.5"></ellipse>
            <path d="M203.493958,155 C189.076255,155 174,153.75789 174,151.362635 C174,151.23046 174.052609,151 174.198223,151 C174.343838,151 174.280895,151.18047 174.280895,151.311798 C174.280895,152.830968 186.27858,154.52383 203.497715,154.52383 C220.716851,154.52383 232.714536,152.829273 232.714536,151.311798 C232.714536,151.18047 232.739901,151.057615 232.885516,151.057615 C233.03113,151.057615 232.99637,151.233001 232.99637,151.36433 C232.988855,153.760432 217.91166,155 203.493958,155 Z" id="Path" fill="url(#linearGradient-23)"></path>
            <path d="M200.513693,151.693562 C200.798111,151.489396 201.101613,151.288101 201.424199,151.089677 C201.817352,150.860686 202.23516,150.680481 202.668988,150.552784 C203.294347,150.367935 203.933387,150.237014 204.579574,150.161359 C205.529861,150.048887 206.48577,149.995198 207.442219,150.000579 C208.562653,149.994836 209.613829,150.031841 210.595747,150.111594 C211.466252,150.175611 212.332189,150.294503 213.18875,150.467608 C213.815956,150.587095 214.427245,150.783385 215.009762,151.052353 C215.475173,151.285868 215.752203,151.552559 215.840853,151.852428 L219.103345,151.885924 C219.313122,151.88508 219.522486,151.905271 219.72851,151.946217 C219.913197,151.984498 219.999077,152.033307 220,152.092642 L220,152.371138 L215.805762,152.329028 C215.658628,152.669731 215.283714,152.981722 214.681019,153.265002 C214.078325,153.548283 213.311874,153.793282 212.381669,154 L210.854308,153.779883 C210.739669,153.763723 210.626797,153.736161 210.517255,153.697579 C210.424912,153.664083 210.386127,153.627716 210.386127,153.588478 C210.386127,153.54924 210.503404,153.473634 210.739803,153.405685 C210.976202,153.337736 211.243074,153.251604 211.54042,153.150159 C211.838309,153.047987 212.130287,152.928161 212.414912,152.791273 C212.700253,152.653461 212.890481,152.488852 212.989288,152.297447 L203.090074,152.196002 C202.809321,152.407655 202.517368,152.602875 202.215582,152.780746 C201.809143,153.00618 201.377831,153.179711 200.931085,153.297541 C200.277163,153.473812 199.611316,153.598581 198.939238,153.670782 C197.941283,153.777271 196.938525,153.828067 195.935307,153.82295 C195.028495,153.828054 194.143229,153.792644 193.27951,153.71672 C192.503765,153.654231 191.732666,153.540432 190.970925,153.376018 C190.400075,153.259089 189.845033,153.070772 189.317978,152.815199 C188.888581,152.592211 188.647565,152.336685 188.597699,152.049576 L185.911429,152.020865 C185.698698,152.02126 185.486367,152.001721 185.27703,151.962487 C185.092343,151.92612 185,151.876354 185,151.815104 L185,151.536609 L188.671574,151.572019 C188.834098,151.279168 189.167458,151.023642 189.67627,150.806396 C190.280471,150.558269 190.903862,150.363616 191.53976,150.224523 L192.769775,150.399659 C193.139148,150.45421 193.323835,150.518331 193.323835,150.591065 C193.323835,150.630303 193.249037,150.679112 193.0939,150.73749 C192.938763,150.795869 192.755,150.865732 192.53984,150.94708 C192.330224,151.028811 192.126014,151.124721 191.928526,151.234188 C191.754294,151.321649 191.601239,151.448547 191.480661,151.605515 L200.513693,151.693562 Z M191.453881,152.076373 C191.527756,152.259165 191.692127,152.416118 191.942378,152.548188 C192.238699,152.697411 192.552091,152.807069 192.875046,152.874535 C193.289757,152.966993 193.709912,153.030935 194.132763,153.06594 C194.600021,153.106136 195.088518,153.124957 195.598253,153.122405 C196.118205,153.123055 196.637849,153.096224 197.155163,153.042015 C197.547211,153.000637 197.936203,152.93254 198.319614,152.838168 C198.619081,152.764204 198.911941,152.663994 199.195029,152.538618 C199.426835,152.433358 199.650368,152.309527 199.863596,152.168248 L191.453881,152.076373 Z M213.00591,151.827546 C212.932035,151.641882 212.751966,151.480144 212.472165,151.340418 C212.129068,151.180216 211.768888,151.062641 211.399135,150.990146 C210.897145,150.885256 210.389109,150.814286 209.878239,150.777686 C209.3014,150.731748 208.663923,150.710375 207.965807,150.713565 C207.430653,150.712623 206.895835,150.741375 206.363648,150.799697 C205.970961,150.843943 205.581822,150.917183 205.199198,151.018857 C204.91066,151.095417 204.630585,151.202863 204.36349,151.339461 C204.142052,151.456236 203.927722,151.586955 203.721703,151.730886 L213.00591,151.827546 Z" id="Shape" fill="#FCB048"></path>
            <path d="M203.945647,148 C190.834454,148 177.183481,149.22793 175,151.604988 C175.084876,151.688993 175.164689,151.778614 175.238965,151.873317 C177.079461,150.222444 188.351095,148.560599 203.945647,148.560599 C219.939411,148.560599 231.392846,150.309227 232.779778,152 C232.847861,151.906705 232.921415,151.818083 233,151.734663 C231.196051,149.273815 217.289246,148 203.945647,148 Z" id="Path" fill="url(#linearGradient-24)"></path>
            <path d="M18.584869,191.987895 C14.2922468,192.135075 9.9651719,190.941794 6.44447678,188.318623 C-1.35580436,182.510573 -2.19477455,171.953616 4.58216781,164.814419 L103.614172,59.7385522 C106.853659,56.3263811 111.537366,54.4474979 116.441756,54.5816373 C121.322868,54.7148452 125.945119,56.8294039 129.119425,60.3710567 L162.276905,97.3599974 L199.953278,55.9174422 C205.588625,49.7172209 215.350848,49.3408853 221.74788,55.0120013 C228.105803,60.6486508 228.784614,70.1818637 223.274042,76.3671807 L174.42754,131.184552 C171.384527,134.599518 166.955025,136.592978 162.276905,136.643281 C157.577368,136.693583 153.090135,134.780233 149.985666,131.383898 L116.440825,94.7088811 L32.4329985,185.829592 C28.825706,189.705662 23.7304287,191.810905 18.584869,191.987895 Z" id="Path" fill="url(#linearGradient-25)"></path>
            <polygon id="Path" fill="url(#linearGradient-26)" points="234.518576 85 193 48.7841927 246.278943 31 250 31 237.875353 84.6739734"></polygon>
            <path d="M22.5846568,191.987895 C18.2929422,192.135075 13.9658435,190.941794 10.444198,188.318623 C2.64480518,182.510573 1.80489922,171.953616 8.58187876,164.814419 L107.613495,59.7385522 C110.853931,56.3263811 115.537663,54.4474979 120.44115,54.5816373 C125.32322,54.7148452 129.944565,56.8294039 133.118888,60.3710567 L166.27655,97.3599974 L203.953129,55.9174422 C209.589438,49.7172209 219.350784,49.3408853 225.747851,55.0120013 C232.105809,60.6486508 232.784624,70.1818637 227.274021,76.3671807 L178.427251,131.184552 C175.384222,134.599518 170.954696,136.592978 166.27655,136.643281 C161.576987,136.693583 157.089729,134.780233 153.985243,131.383898 L120.44115,94.7107441 L36.4328623,185.829592 C32.8264812,189.705662 27.7302447,191.810905 22.5846568,191.987895 Z" id="Path" fill="url(#linearGradient-27)"></path>
            <polygon id="Path" fill="url(#linearGradient-28)" points="235.939043 84 195 47.8922174 248 30"></polygon>
            <path d="M80.8176074,218 C80.8176074,218 80.024951,221.43543 80,222.680194 C79.9751216,223.924958 92.7877345,225.659934 92.9870521,224.742635 C93.1863696,223.825337 91.0418603,222.156446 89.4934581,221.500529 C87.9450559,220.844611 83.4031992,219.055386 83.4031992,219.055386 L80.8176074,218 Z" id="Path" fill="url(#linearGradient-29)"></path>
            <path d="M85,215.45794 L84.2373689,219.602251 C84.2373689,219.602251 82.6120114,220.497186 81.3155386,219.602251 L81,215 L85,215.45794 Z" id="Path" fill="url(#linearGradient-30)"></path>
            <path d="M57.8184724,221 C57.8184724,221 57.0249492,224.434928 57,225.679867 C56.9751233,226.924806 69.7877546,228.660027 69.9870581,227.742599 C70.1863616,226.825172 68.0410809,225.157032 66.492788,224.500035 C64.9444951,223.843039 60.4029589,222.054548 60.4029589,222.054548 L57.8184724,221 Z" id="Path" fill="url(#linearGradient-31)"></path>
            <path d="M62,218.45794 L61.2371871,222.602251 C61.2371871,222.602251 59.6162098,223.497186 58.3146603,222.602251 L58,218 L62,218.45794 Z" id="Path" fill="url(#linearGradient-32)"></path>
            <path d="M91.3603467,108.093235 C92.5735645,111.268471 93.7867822,114.444018 95,117.619876 C94.8201752,135.151328 93.9408321,154.156907 92.0068167,174.396225 C90.5682186,189.45552 88.6926463,203.680474 86.5464377,217 L80.6769573,216.227393 C78.2879852,210.12791 75.6202848,200.965124 76.1561626,189.97371 C76.7154176,178.509003 80.1662549,177.268716 80.798339,166.298814 C81.6174408,152.081343 76.1876319,147.817972 74.4541212,130.489494 C73.7914669,123.862469 73.6637913,115.269317 75.3937056,105 L91.3603467,108.093235 Z" id="Path" fill="url(#linearGradient-33)"></path>
            <path d="M74.4416005,105 L83.3563003,106.673289 C87.9996055,116.553084 88.7229718,126.502092 87.4296523,130.778379 C85.5998516,136.822423 81.89934,138.507871 81.6027413,144.700631 C81.308002,150.827918 84.7639823,152.702301 86.4589653,160.08853 C87.6332734,165.202864 86.8531907,169.756007 85.2446769,178.651844 C82.0044048,196.572592 77.2281415,201.746787 80.3884528,207.96293 C81.2866172,209.728815 82.9862491,211.882859 86.5082435,213.706735 C86.3306562,214.807608 86.1539986,215.912222 85.9726921,217 C83.9494978,216.743722 81.9263036,216.486509 79.9031093,216.22836 C77.4326924,210.127262 74.6740447,200.965794 75.2281917,189.974838 C75.8065128,178.51061 79.3749961,177.269439 80.0286292,166.300931 C80.8756558,152.084054 75.2607339,147.820861 73.4681243,130.493106 C72.7847383,123.862616 72.65271,115.268888 74.4416005,105 Z" id="Path" fill="url(#linearGradient-34)" opacity="0.3" style="mix-blend-mode: multiply;"></path>
            <path d="M83,113.693256 C78.8322558,128.779785 74.9148064,144.968463 71.477808,162.192436 C67.3282845,182.991195 64.4024245,202.675736 62.3760914,221 L55.4637351,220.653664 C47.8398128,202.59774 48.2598478,190.789802 50.1998723,183.234466 C50.9478798,180.321712 52.7939239,174.640122 53.8219546,166.014208 C54.5383156,160.002066 54.5210539,155.38177 54.4817356,149.827387 C54.3944681,137.648971 53.2925955,134.906134 53.8679859,125.640472 C54.4088528,116.943991 54.7310714,112.548396 57.5121248,110.182537 C64.8099926,103.943838 81.7226334,112.991298 83,113.693256 Z" id="Path" fill="url(#linearGradient-35)"></path>
            <path d="M159.246716,54.721631 C152.730016,60.023723 147.906631,64.5651969 141.453372,65.8186882 C136.948125,66.6941865 133.419684,65.703808 129.991069,64.8755587 C120.059748,62.4751183 116.537837,57.7993087 98.9907931,48.1540038 C97.2928124,47.2210654 95.8905789,46.476197 94.9856112,46 C94.677867,46.345437 94.3485023,46.6712681 93.9994762,46.9755553 C88.3466933,51.7152902 81.9643384,55.6184378 79.1374805,62.6381741 C78.7148512,63.6869192 79.3539264,63.6646843 79.875449,64.3493333 C90.1743549,77.8514631 128.575774,85.3020002 145.075108,78.3536008 C154.43546,74.4115422 157.435848,66.772935 163,58.7063065 L159.246716,54.721631 Z" id="Path" fill="url(#linearGradient-36)"></path>
            <path d="M96.2759595,121.605799 C98.6607446,118.206474 96.2869662,114.544724 96.2154226,107.727329 C96.1347068,100.000822 99.1266949,98.9604989 102.983626,86.483184 C105.551856,78.1849683 108.010019,70.2185312 106.576397,60.5397788 C105.889395,55.9005008 104.723602,48.0334099 98.7607221,43.7915164 C95.6843493,41.6021521 91.2624074,41.4334511 82.5432662,41.1869601 C71.7612859,40.8814238 66.3707544,40.7286557 62.1982977,42.5553128 C61.5874258,42.8224228 48.8765212,48.5948094 47.1732343,59.5603757 C45.4387618,70.7236971 57.2902265,73.2110999 57.71215,88.3192135 C57.9010984,95.1009945 55.812577,105.33646 54.4587528,111.975783 C53.1581277,118.348932 52.4812156,119.954404 53.5717962,122.004121 C56.2014804,126.948935 65.4837977,126.361294 84.0484325,125.18601 C91.3311993,124.726768 94.4956257,124.145687 96.2759595,121.605799 Z" id="Path" fill="url(#linearGradient-37)"></path>
            <path d="M71.2004074,86.0883098 C70.1781041,88.9346969 67.1808967,90.8811922 64.6474432,97.8018564 C64.1009756,99.297004 60.206,109.935913 63.9197491,112.931815 C66.0647273,114.662449 68.3342407,111.894557 73.8695484,111.955297 C83.4680471,112.059957 87.371387,120.487917 93.7747232,118.789056 C94.8899632,118.493764 96.3769498,117.793848 97.9522263,116.037984 C98.1018543,117.747125 97.936427,119.207697 96.929923,120.616874 C95.1250929,123.146476 91.9178486,123.72865 84.5396069,124.188407 C65.729226,125.360229 56.3240355,125.94614 53.6595414,121.015891 C52.5545244,118.970342 53.240397,117.371469 54.5582389,111.017092 C55.9299841,104.397326 58.0461519,94.1920095 57.8547024,87.4302047 C57.4271937,72.3665931 45.4188473,69.8865171 47.1753503,58.756078 C47.6456098,55.7816688 48.9532287,53.2044082 50.6019251,51 C65.48852,58.5019029 74.4039342,77.1417206 71.2004074,86.0883098 Z" id="Path" fill="url(#linearGradient-38)" opacity="0.3" style="mix-blend-mode: multiply;"></path>
            <path d="M40.7320073,120 C40.7320073,120 37.3580215,121.179567 37,127 C37.5506412,126.947672 38.8351217,126.979287 38.8351217,126.979287 C38.8351217,126.979287 38.5974876,122.748326 41,121.89036 C40.8063334,121.398692 40.7320073,120 40.7320073,120 Z" id="Path" fill="url(#linearGradient-39)"></path>
            <path d="M51,119.967617 C50.9286375,120.978068 50.8575652,121.988863 50.7867829,123 C49.3751986,122.570181 47.8348138,122.074552 46.1839042,122.002573 C44.220763,121.922774 42.2578889,122.169929 40.353069,122.736762 C40.1896662,122.460619 40.0816317,122.144135 40.0371596,121.811314 C39.9609842,121.281762 40.0023643,120.737919 40.1572574,120.232912 C41.0907242,119.825379 42.0513633,119.510662 43.0291613,119.29204 C45.9915737,118.636001 48.68072,119.183043 51,119.967617 Z" id="Path" fill="url(#linearGradient-40)"></path>
            <path d="M50.9955899,120.866108 C50.9955899,120.505566 50.9451073,120.053618 50.7526423,120.004869 C50.5601774,119.95612 50.3314281,120.285178 50.2273078,120.466973 C50.1847131,120.543143 50.0884806,120.726969 50.0285325,121.309931 C49.9528086,122.060468 50.0427307,122.427104 50.124765,122.653585 C50.17367,122.789677 50.2509715,122.995847 50.3661349,122.999909 C50.4812984,123.003971 50.5380913,122.871942 50.6579875,122.618039 C50.9106691,122.048828 51.0245594,121.457814 50.9955899,120.866108 L50.9955899,120.866108 Z" id="Path" fill="url(#linearGradient-41)"></path>
            <path d="M54,127.476378 C53.1886201,127.609252 51.2194817,128 51.2194817,128 C51.2194817,128 52.5029804,124.588583 50.0842616,123.047244 C49.9923084,122.667854 49.9754807,122.278566 50.03444,121.894685 C50.0823989,121.587081 50.1797423,121.286183 50.3238797,121 C51.3499668,121.466535 53.5871927,123.051181 54,127.476378 Z" id="Path" fill="url(#linearGradient-42)"></path>
            <path d="M68,127.961862 C68,127.961862 67.9020173,125.964521 64.5521614,126.00048 C64.026513,126.368784 64,128 64,128 L68,127.961862 Z" id="Path" fill="url(#linearGradient-43)"></path>
            <path d="M70.1842403,161.697179 L62.571962,166 L58,149.749789 L65.5481407,128 L67.7039318,128.585998 L70.9893115,159.985038 C71.0639792,160.697589 70.7423337,161.380795 70.1842403,161.697179 Z" id="Path" fill="url(#linearGradient-44)"></path>
            <path d="M59,149.747165 L66.0007891,128 L68,128.585927 C67.5072993,130.517012 67.271158,133.654795 67.1601894,135.400656 C66.6870191,142.827904 65.1183665,144.889195 65.8791675,150.071763 C66.5103571,154.381401 67.8916946,154.981082 67.7709607,157.879542 C67.6395739,161.035664 65.863188,163.648955 63.7574472,165.684571 L63.2398895,166 L59,149.747165 Z" id="Path" fill="url(#linearGradient-45)" opacity="0.3" style="mix-blend-mode: multiply;"></path>
            <polygon id="Path" fill="url(#linearGradient-46)" points="66 128 26.0677597 128.405338 20 161.81823 63.0642917 166"></polygon>
            <g id="Group" opacity="0.2" style="mix-blend-mode: multiply;" transform="translate(20.000000, 128.000000)" fill="url(#linearGradient-47)">
                <path d="M6.00592876,0.131812297 L19.0611575,0 C19.3880312,0.94426083 19.7742897,1.86721513 20.217654,2.76341696 C26.1534638,14.7379144 39.9510193,16.2881012 39.6985908,18.2847791 C39.3246226,21.2672643 9.02104711,16.9462345 8.26563141,20.9470161 C7.90101245,22.8768596 14.1715237,27.3371278 20.793565,29.0887461 C28.8077028,31.2107385 34.7612761,28.7304395 38.7515164,33.3587219 C40.1080859,34.9367565 40.7083048,36.761707 41,38 L-5.31440729e-15,33.9574468 L6.00592876,0.131812297 Z" id="Path"></path>
            </g>
            <path d="M64.7853124,126.007085 C65.248786,126.001452 65.8959533,125.936676 66.6005838,126.342234 C66.7418099,126.424169 66.8754716,126.518417 67,126.623871 L66.6759453,126.512155 C66.1540666,126.364765 65.4343638,126.575993 65.1687143,127.101715 C64.8390075,127.748543 64.7212551,129.236526 64.6487196,129.973477 C64.4443014,132.069798 63.1857635,145.100217 63.1857635,145.100217 C63.0915616,146.197664 62.2607005,147.025677 61.2800583,146.999391 L24.3651446,144.901193 C24.0866205,144.895879 23.8175523,144.79957 23.5992829,144.627066 C23.1282732,144.25155 22.9191449,143.611294 23.0284191,143.000141 L24.8418064,127.941933 C24.9953556,127.074491 25.6557112,126.446439 26.421573,126.439868 L64.7853124,126.007085 Z" id="Path" fill="url(#linearGradient-48)"></path>
            <path d="M63.846969,126.017419 C64.3059956,126.017419 64.8500963,125.943264 65.457769,126.10096 C65.6213732,126.1432 65.8840748,126.221109 66,126.31873 C66,126.31873 64.7117339,126.023051 64.223726,127.110963 C63.9273688,127.774599 63.7796576,129.244548 63.7076717,129.9814 C63.5048025,132.0765 62.2576712,145.101411 62.2576712,145.101411 C62.1641831,146.197772 61.3396181,147.025674 60.3664069,146.999391 L23.3535321,146.021303 C23.0773768,146.016131 22.8106002,145.919808 22.5944087,145.747213 C22.1269682,145.371747 21.9203595,144.730639 22.0278708,144.120507 L24.2295156,127.952945 C24.3819013,127.086558 25.036318,126.457652 25.7963763,126.451082 L63.846969,126.017419 Z" id="Path" fill="url(#linearGradient-49)"></path>
            <path d="M22.0276679,143.730274 L24.2293697,127.909249 C24.3817592,127.061431 25.0361929,126.446006 25.7962708,126.439576 L63.8469133,126.017045 C64.3059517,126.017045 64.8500666,125.94448 65.457755,126.098796 C65.6213634,126.14013 65.8840718,126.21637 66,126.311898 C66,126.311898 64.7117006,126.022557 64.2236801,127.087151 C64.1722258,127.20356 64.1288103,127.323241 64.0937283,127.445383 C60.3812196,127.629093 56.6902138,127.559283 53.018841,127.831172 C45.8200708,128.351988 38.6269101,128.41996 31.9834736,131.334505 C29.8724576,132.260398 28.4308337,135.537768 29.000191,137.04602 C29.4115493,138.134496 30.8195166,138.045397 31.3112767,139.476491 C31.8292142,140.981987 30.588595,142.004328 31.1084023,143.058818 C31.653452,144.167502 33.3138437,143.643931 36.0091754,144.443984 C37.1971945,144.801175 38.3264017,145.325269 39.3617456,146 L23.3524286,145.585736 C23.0762661,145.580675 22.8094826,145.486417 22.5932855,145.317521 C22.1295725,144.957451 21.9201538,144.327329 22.0276679,143.730274 Z" id="Path" fill="url(#linearGradient-50)" opacity="0.1" style="mix-blend-mode: multiply;"></path>
            <path d="M39.7671753,148.858783 L44.3696769,149.955713 L44.8580601,149.996991 C45.3501573,150.039146 45.7744751,149.633397 45.7958303,149.095031 L45.9991686,144.001201 C46.0205237,143.462836 45.6277744,143.015808 45.1366057,143.007904 L44.6463655,143 L40.0178663,143.562078 C39.5768358,143.554174 39.2063702,143.327586 39.186872,143.825552 L39.0011749,148.575109 C38.9770343,149.081858 39.3280018,148.821897 39.7671753,148.858783 Z" id="Path" fill="url(#linearGradient-51)"></path>
            <path d="M39.7587225,149.56243 L44.8588012,149.997022 C45.3509792,150.038742 45.7744381,149.637179 45.7957967,149.10437 L45.9991684,144.063101 C46.0205271,143.530291 45.6277133,143.087877 45.1373925,143.080054 L40.0224556,143.000089 C39.5822813,142.993136 39.2080402,143.39383 39.1866816,143.891003 L39.000954,148.590682 C38.9795953,149.088724 39.3194768,149.525055 39.7587225,149.56243 Z" id="Path" fill="url(#linearGradient-52)"></path>
            <path d="M46.2236709,114 C46.2236709,114 46.7197505,116.816962 47.2169061,117.083182 C47.7140618,117.349403 49.2668661,118.83342 48.9558748,119.794208 C48.6448835,120.754997 49.8264353,122.935425 47.6204416,123.465102 C45.4144478,123.994779 42.8856258,124.560382 42.6273631,122.8691 C42.3691004,121.177818 42.9943113,119.262689 42.9318978,117.827494 C42.8694844,116.392299 42,114.956183 42,114.956183 L46.2236709,114 Z" id="Path" fill="url(#linearGradient-53)"></path>
            <path d="M63.8666093,41 C66.4247739,53.5818343 64.2168509,61.7310031 61.5494109,66.9618121 C56.1491525,77.5440469 46.8682172,80.0393058 45.3252862,89.4257386 C44.2110509,96.1962958 43.7263166,109.547062 47.000842,113.877014 C44.0494728,115.06622 43.7403262,115 41.5118557,115 C38.5231274,113.278642 32.1618061,101.794609 29.4775545,87.1406167 C26.2198407,69.3656662 39.8409698,48.3764678 63.8666093,41 Z" id="Path" fill="url(#linearGradient-54)"></path>
            <path d="M72.2604654,41.6680068 C73.4704521,41.1404994 79.3420526,39.8636267 80.6420971,37.1461066 C82.0830245,34.139124 82.5698724,30 82.5698724,30 C82.5698724,30 86.6215889,31.1502328 86.028633,33.3849979 C85.4356772,35.619763 86.4450396,40.7424884 88.7704966,41.887008 C90.3986731,42.6877909 92.4156147,43.0096276 92.8525296,43.5457046 C92.883137,43.5480107 92.9132205,43.5553995 92.9416959,43.5676047 C93.2769611,43.7913669 92.2337155,45.5090986 88.0482496,48 C73.6033098,45.6776344 72.0874828,43.0362886 72.0214998,42.1288616 C71.959975,41.9308083 72.0277414,41.76989 72.2604654,41.6680068 Z" id="Path" fill="url(#linearGradient-55)"></path>
            <path d="M88.1255845,29.8756252 C90.1594153,28.2190352 90.4411414,28.0292274 90.6958526,27.4222183 C91.7253106,24.9838456 90.014693,21.4019279 87.4704748,20.3542263 C87.3382951,20.3006667 85.6305719,19.6166068 84.9011715,20.3053649 C84.2807952,20.8898226 85.0449289,21.8238274 84.548049,23.0049582 C84.0820432,24.1109176 83.0651278,24.1165554 81.0747137,25.4583651 C79.4345275,26.5633849 78.4108584,27.2512033 78.1011527,28.3054824 C77.4643745,30.4788758 79.9468445,33.8954164 82.3849329,33.9978375 C83.2580909,34.0354232 83.5311336,33.6191615 88.1255845,29.8756252 Z" id="Path" fill="url(#linearGradient-56)"></path>
            <path d="M82.799411,33.0921813 C82.799411,33.0921813 84.4047102,35.4183729 87.144262,34.9335183 C89.5998256,34.499555 89.4280722,28.4314704 87.7394471,27.3174152 C87.1748715,26.9472973 86.105239,26.8788254 85.2736804,27.2295122 C84.780527,27.4377036 84.6300302,27.6847574 83.818878,28.00676 C83.0706454,28.3037797 82.8453253,28.2334573 82.6285079,28.4694075 C82.3615249,28.7645766 82.2033757,29.4381914 82.8470258,31.152763 C82.3292148,30.6827131 81.7416821,30.5429936 81.3633145,30.7909726 C81.2332838,30.8862798 81.129998,31.0188542 81.0648717,31.1740448 C80.7817336,31.8976254 81.4372875,32.7165115 82.799411,33.0921813 Z" id="Path" fill="url(#linearGradient-57)"></path>
            <path d="M84,46.7108434 C84,46.7108434 84.9976661,51.6174699 86.5562471,51.7128514 C87.461349,51.765932 88.3629017,51.8617741 89.2573518,52 L91,46 C91,46 88.7280224,47.7058233 84,46.7108434 Z" id="Path" fill="url(#linearGradient-58)"></path>
            <path d="M85.4300262,51 C85.4300262,51 82.4483844,84.0511354 72,89.342867 C72.2677393,90.4013983 72,99 72,99 C72,99 81.7359733,96.1035997 82.297664,96.2949674 C82.8593548,96.486335 94.0931701,78.0826833 88.3892004,51.6425146 L85.4300262,51 Z" id="Path" fill="url(#linearGradient-59)"></path>
            <path d="M160.168227,4.61955552 C167.863735,0.807430545 175.203529,1.83511056 178.870676,3.45540106 C183.202493,5.37062291 184.639098,6.80772624 188.474016,7.53039962 C191.882629,8.17155471 195.421426,3.99671914 198.077357,6.94878036 C198.325538,7.21406345 198.542404,7.50694454 198.723692,7.82166722 C200.626941,11.108045 198.37898,15.0777109 198.998728,22.0131771 C199.316853,25.5615126 200.086954,26.5461436 200.799297,33.3707816 C201.069749,35.9637959 201.012908,36.3457412 200.937732,36.6452522 C199.773413,41.2469139 190.53862,40.3776908 184.038602,38.3919418 C175.077929,35.6542096 172.193718,31.0644551 166.309781,33.1518729 C163.595176,34.1154374 161.532406,36.0425664 160.214983,37.519055 C160.814562,26.598352 159.567732,15.5320151 160.168227,4.61955552 Z" id="Path" fill="url(#linearGradient-60)"></path>
            <path d="M159.500448,91 C159.367805,91 159.240512,90.9471861 159.146633,90.8525208 C159.052755,90.7578554 159,90.6293573 159,90.4953574 L159,0.483936352 C159.011469,0.213380191 159.231928,0 159.499989,0 C159.768051,0 159.98851,0.213380191 159.999979,0.483936352 L159.999979,90.4907277 C160.001202,90.6253673 159.949113,90.7549175 159.8553,90.8505599 C159.761487,90.9462023 159.63373,91 159.500448,91 Z" id="Path" fill="#26264F"></path>
            <path d="M161.626366,60 C164.225379,56.8765276 164.695375,53.1559465 163.010091,50.9464695 C161.28949,48.6907253 157.825648,49.0163416 156.500785,49.0163416 C155.499215,49.0163416 156,52.3947201 158.003142,52.6365317 C158.179708,52.65263 158.348874,52.7128049 158.493966,52.8111249 C159.460219,53.4964032 159.510932,55.1419441 159.505498,55.7730986 C159.489198,57.5059361 158.899666,57.9101194 159.243786,58.6608701 C159.462936,59.1392555 160.034357,59.7023186 161.626366,60 Z" id="Path" fill="url(#linearGradient-61)"></path>
            <path d="M183.308028,24.7950742 C183.308028,24.077444 183.130563,23.5099272 182.775634,23.0925236 C182.420704,22.67512 181.796291,22.2719676 180.902394,21.8830666 C180.005869,21.4941655 179.177371,21.1020975 178.416901,20.7068625 C177.699098,20.3424509 177.035796,19.8860658 176.44507,19.3501425 C175.902874,18.8551439 175.470245,18.2595193 175.173239,17.5991376 C174.877465,16.9404127 174.729906,16.148676 174.730563,15.2239275 C174.730563,13.6790908 175.256385,12.4252966 176.308028,11.4625448 C177.359671,10.4997929 178.754085,9.97091281 180.491268,9.87590441 L180.491268,7 L182.667183,7.08740773 L182.667183,10.0155668 C184.331408,10.3246608 185.636103,11.0552754 186.581268,12.2074107 C187.526432,13.3595459 187.999343,14.792906 188,16.507491 L183.40662,16.3592779 C183.40662,15.4155278 183.224883,14.6833297 182.861408,14.1626836 C182.497934,13.6420376 181.978357,13.3696801 181.302676,13.3456113 C180.699296,13.3240761 180.230657,13.496358 179.896761,13.8624571 C179.562864,14.2285561 179.395915,14.7441351 179.395915,15.4091939 C179.395915,16.0824868 179.588169,16.6234013 179.972676,17.0319374 C180.357183,17.4404736 180.973709,17.837292 181.822254,18.2223928 C182.670141,18.6068601 183.468732,19.0033618 184.218028,19.411898 C184.921542,19.7871562 185.572839,20.2468627 186.156338,20.780019 C186.694459,21.2771811 187.127386,21.8702209 187.431127,22.5262735 C187.738732,23.1849984 187.892207,23.9707179 187.891549,24.883432 C187.891549,26.428902 187.401549,27.6792126 186.421549,28.6343638 C185.441549,29.589515 184.100047,30.132013 182.397042,30.2618578 L182.397042,33 L180.219155,32.9600965 L180.219155,30.2048527 C178.223005,29.951497 176.687606,29.2370338 175.612958,28.0614631 C174.53831,26.8858925 174.000657,25.3486565 174,23.4497552 L178.653521,23.572316 C178.653521,24.6104412 178.883568,25.4062949 179.343662,25.9598772 C179.803756,26.5134595 180.461033,26.7984847 181.315493,26.8149529 C181.93662,26.8301542 182.424648,26.6578723 182.779577,26.2981071 C183.134507,25.938342 183.310657,25.437331 183.308028,24.7950742 Z" id="Path" fill="#FFFFFF"></path>
            <polygon id="Path" fill="url(#linearGradient-62)" points="206 87.6618352 206 213.462602 132 220 132 84"></polygon>
            <polygon id="Path" fill="#CED3DB" points="200 107 138 105.289198 138 97 200 99.2422422"></polygon>
            <polygon id="Path" fill="#CED3DB" points="200 121 138 120.235158 138 112 200 113.292818"></polygon>
            <polygon id="Path" fill="#CED3DB" points="200 134.83401 138 135 138 127 200 127.34691"></polygon>
            <polygon id="Path" fill="#CED3DB" points="200 148.996307 138 150 138 142.524415 200 142"></polygon>
            <polygon id="Path" fill="#CED3DB" points="200 162.905963 138 165 138 156.553371 200 155"></polygon>
            <polygon id="Path" fill="#CED3DB" points="200 176.935601 138 180 138 171.521706 200 169"></polygon>
            <polygon id="Path" fill="#CED3DB" points="200 190.959851 138 195 138 186.495798 200 183"></polygon>
            <polygon id="Path" fill="#97A6B7" points="132 84 132 220 110 217.729476 110 96.107291 130.995106 84.3383015 131.717489 84.0455406"></polygon>
            <polygon id="Path" fill="#97A6B7" opacity="0.5" style="mix-blend-mode: multiply;" points="200 101 138 98.7141468 138 97 200 99.3957219"></polygon>
            <polygon id="Path" fill="#97A6B7" opacity="0.5" style="mix-blend-mode: multiply;" points="200 115 138 113.717208 138 112 200 113.392857"></polygon>
            <polygon id="Path" fill="#97A6B7" opacity="0.5" style="mix-blend-mode: multiply;" points="200 128 138 127.724205 138 126 200 126.386308"></polygon>
            <polygon id="Path" fill="#97A6B7" opacity="0.5" style="mix-blend-mode: multiply;" points="200 142.373855 138 143 138 141.532057 200 141"></polygon>
            <polygon id="Path" fill="#97A6B7" opacity="0.5" style="mix-blend-mode: multiply;" points="200 155.920279 138 158 138 155.949374 200 154"></polygon>
            <polygon id="Path" fill="#97A6B7" opacity="0.5" style="mix-blend-mode: multiply;" points="200 170.47585 138 173 138 171.423077 200 169"></polygon>
            <polygon id="Path" fill="#97A6B7" opacity="0.5" style="mix-blend-mode: multiply;" points="200 184.797712 138 189 138 187.079172 200 183"></polygon>
            <path d="M204,213.663029 L132.811111,220 L111,217.727835 L111,190.796406 C111.643634,189.066958 112.7823,187.423007 113.786294,185.903584 C123.057224,171.848686 120.041525,166.43638 121.971498,156.435136 C123.868964,146.601168 119.711813,93.9278281 132.164691,84.3494209 C132.326296,84.2258225 132.484186,84.1096587 132.651364,84 C132.665295,84.0176569 132.67644,84.0371724 132.690372,84.0548293 C132.720092,84.0947897 132.748884,84.1319621 132.776747,84.1682053 C137.598893,90.4875192 140.299741,94.1034678 141.844277,97.2519731 C142.122907,97.8095596 142.359742,98.3671461 142.56407,98.9098637 C143.352591,100.984086 143.687875,103.032287 143.86434,105.745874 C143.976721,107.555243 144.02223,109.661061 144.078885,112.269637 C144.089101,112.79098 144.103033,113.334627 144.116036,113.899648 C144.124395,114.225836 144.131825,114.559459 144.140184,114.899587 C144.191266,116.887383 144.23306,118.821278 144.282285,120.690123 C144.346369,122.966005 144.434602,125.150815 144.592492,127.208309 C144.635215,127.759081 144.683201,128.302108 144.736451,128.837391 C144.985359,131.304711 145.364295,133.576877 145.96985,135.62136 C146.724007,138.180683 147.82738,140.360846 149.474079,142.092152 C150.036177,142.68825 150.658701,143.224247 151.331609,143.691496 C152.87243,144.763921 154.753178,145.550118 157.053729,146.01942 C159.942187,146.604886 162.741484,148.053681 165.334595,150.173439 C167.396453,151.856421 169.328283,153.965028 171.073432,156.404469 C171.431936,156.907226 171.785795,157.426711 172.129438,157.960135 C173.456273,160.023351 174.617465,162.18862 175.602089,164.435573 C176.491241,166.456843 177.252473,168.532063 177.881278,170.648946 C178.035453,171.160996 178.18034,171.679552 178.319655,172.202754 C178.888351,174.335658 179.32845,176.500827 179.637572,178.686556 C179.935679,180.757425 180.11399,182.843795 180.171612,184.935242 C180.186472,185.454417 180.193902,185.977 180.193902,186.50299 C180.193902,186.824531 180.193902,187.146073 180.183686,187.470402 C180.144678,189.548341 180.379655,191.373508 180.833821,192.997014 C184.411423,205.791766 201.256429,205.469295 204,213.663029 Z" id="Path" fill="#97A6B7" opacity="0.1" style="mix-blend-mode: multiply;"></path>
            <path d="M126.509427,224.536041 C122.859463,225.180623 118.030281,225.373622 112.896,223.640373 C107.341505,221.766589 99.5006351,216.983757 100.074334,212.54008 C100.287717,210.880845 101.690613,209.142911 103.247931,208.869338 C105.548343,208.465538 106.622743,211.531048 111.419169,213.923869 C112.30639,214.366082 116.889434,216.652098 118.464533,215.071561 C119.246936,214.286446 119.129014,212.703099 118.679788,211.592882 C117.369544,208.346553 113.135587,208.894634 108.252124,206.27977 C103.30034,203.628366 98.3026985,198.057608 99.0804214,193.212941 C99.5268399,190.428499 101.908675,187.702144 103.955462,187.763979 C104.829581,187.789275 105.517459,188.320493 109.368638,193.018068 C112.530068,196.873377 113.311534,198.033249 114.725661,198.110074 C116.180967,198.188773 118.131357,197.108537 118.582455,195.580466 C119.756995,191.590245 109.493111,188.813298 106.17726,179.36006 C104.69107,175.123436 104.197857,168.398427 107.758911,166.00748 C110.16695,164.389468 114.310127,164.830744 116.302632,166.90877 C118.100473,168.782553 117.033561,170.819356 119.247872,175.50194 C119.919839,176.922268 121.306825,179.846307 122.581505,179.687036 C124.078925,179.499657 124.689124,175.15529 124.816405,174.103161 C125.778498,166.177994 121.58104,163.321411 123.34051,159.139127 C124.712522,155.877807 128.950222,153.611466 132.886567,154.055552 C136.331571,154.444363 139.649294,156.922441 140.654438,160.121926 C141.683914,163.376688 139.758793,167.380026 135.917908,175.38764 C134.095735,179.184862 132.548712,181.832518 133.470561,184.898027 C133.919788,186.397054 135.068122,188.364526 136.197739,188.270837 C138.69188,188.083459 137.376022,178.167397 142.640392,175.217125 C145.334813,173.706856 149.314209,174.26618 151.568763,176.466002 C154.331505,179.159566 154.208903,184.026718 152.396088,187.040699 C150.031099,190.975644 146.167754,189.454132 141.066228,194.341896 C138.804187,196.5108 135.461195,200.741803 136.745233,203.188964 C137.306766,204.25421 138.779854,205.057126 140.121917,204.866937 C143.129861,204.439714 142.852838,199.395489 147.004438,196.068587 C149.999279,193.671081 154.718026,192.620825 156.324946,194.242585 C158.592603,196.532348 154.60572,204.104307 152.343678,207.579238 C149.607142,211.780261 142.764865,220.177621 126.509427,224.536041 Z" id="Path" fill="url(#linearGradient-63)"></path>
            <g id="Group" opacity="0.5" transform="translate(127.000000, 166.000000)" fill="#FFFFFF">
                <path d="M1.87240693,56 C1.72199403,56 1.58879209,55.9054056 1.54251124,55.7660632 C-1.06614366,47.9106513 0.0274700739,30.310704 1.92389354,21.644872 C3.77359767,13.2055492 4.29799833,0.452340882 4.30753289,0.324233243 C4.31230179,0.203842303 4.38267558,0.0950735836 4.49214513,0.038899217 C4.60161468,-0.0172751496 4.73354896,-0.012320939 4.83824959,0.0518956454 C4.94295023,0.11611223 5.00451069,0.229835159 4.99974176,0.350226097 C4.99497448,0.478333737 4.46771345,13.290026 2.60561439,21.7859761 C0.722539308,30.3793994 -0.370120969,47.8076082 2.20325607,55.5590487 C2.23146352,55.6441123 2.22380308,55.7366024 2.18196046,55.816166 C2.14011784,55.8957297 2.06752176,55.9558472 1.98014743,55.9832892 C1.94538636,55.9944473 1.9090083,56 1.87240693,56 L1.87240693,56 Z" id="Path"></path>
            </g>
            <path d="M142.687716,207.176551 C140.977911,207.376297 140.827101,209.342513 137.55076,212.231725 C136.204783,213.417893 134.177335,215.206137 132.904878,214.5927 C132.012273,214.161969 131.745528,212.674763 131.814335,211.612608 C132.002847,208.717717 134.736274,208.13552 136.779745,204.78623 C138.37173,202.169657 139.636647,197.70236 137.66104,195.598877 C136.247198,194.096525 133.245142,193.85986 131.762494,195.10756 C130.434426,196.225568 131.291214,197.731706 129.971629,200.519625 C128.973457,202.631628 126.899823,205.121348 125.417175,204.755937 C124.116442,204.435019 123.410464,201.950031 123.410464,200.001801 C123.410464,195.610237 127.00162,194.46383 126.884742,190.522877 C126.811223,188.061556 125.314436,185.268904 123.380302,184.911066 C121.152088,184.499268 118.420547,187.332627 117.519459,190.181132 C116.251715,194.186458 119.049235,196.815338 117.197103,199.458418 C116.299785,200.739251 114.584325,201.63574 113.465505,201.194595 C112.125184,200.664465 111.921591,198.321477 111.768896,196.310767 C111.358882,190.878822 113.212899,189.366056 112.240176,186.63967 C111.274051,183.935057 108.092909,181.616683 105.642251,182.053094 C101.833363,182.729957 100.210273,189.984226 100.020819,194.301004 C99.6390814,202.96296 104.601664,209.504393 107.141865,212.855575 C111.566245,218.687012 116.850241,222.38562 121.265195,224.710621 C124.220669,226.265456 127.710997,226.421865 130.792599,225.137566 C136.711881,222.668672 140.553758,219.679114 142.891309,217.507472 C147.06214,213.631838 147.161109,211.693075 146.928297,210.63376 C146.505087,208.731917 144.4192,206.974912 142.687716,207.176551 Z" id="Path" fill="url(#linearGradient-64)"></path>
        </g>
    </g>
</svg>