<?xml version="1.0" encoding="UTF-8"?>
<svg width="42px" height="46px" viewBox="0 0 42 46" version="1.1" xmlns="http://www.w3.org/2000/svg" xmlns:xlink="http://www.w3.org/1999/xlink">
    <title>documento (1) copySVG</title>
    <defs>
        <filter id="filter-1">
            <feColorMatrix in="SourceGraphic" type="matrix" values="0 0 0 0 0.054902 0 0 0 0 0.058824 0 0 0 0 0.415686 0 0 0 1.000000 0"></feColorMatrix>
        </filter>
    </defs>
    <g id="Page-1" stroke="none" stroke-width="1" fill="none" fill-rule="evenodd">
        <g filter="url(#filter-1)" id="documento-(1)-copy">
            <g>
                <path d="M1.47826087,4.4516129 L23.6521739,4.4516129 L23.6521739,9.64516129 C23.6521739,10.0556168 23.9824007,10.3870968 24.3913043,10.3870968 L29.5652174,10.3870968 L29.5652174,16.3225806 L31.0434783,16.3225806 L31.0434783,9.64516129 C31.0434783,9.43975237 30.9601095,9.2542685 30.8262144,9.11986522 L24.9153363,3.18655494 C24.7807193,3.05142706 24.5959367,2.96774194 24.3913043,2.96774194 L4.43478261,2.96774194 L4.43478261,1.48387097 L32.5217391,1.48387097 L32.5217391,17.8064516 L34,17.8064516 L34,0.741935484 C34,0.331479988 33.6697732,0 33.2608696,0 L3.69565217,0 C3.28674849,0 2.95652174,0.331479988 2.95652174,0.741935484 L2.95652174,2.96774194 L0.739130435,2.96774194 C0.330226755,2.96774194 0,3.29922192 0,3.70967742 L0,45.2580645 C0,45.66852 0.330226755,46 0.739130435,46 L25.8695652,46 L25.8695652,44.516129 L1.47826087,44.516129 L1.47826087,4.4516129 Z M25.1304348,5.50075605 L28.5200408,8.90322581 L25.1304348,8.90322581 L25.1304348,5.50075605 Z" id="Shape" fill="#000000" fill-rule="nonzero"></path>
                <path d="M41.2666667,22.4098371 L40.1623698,22.4098371 C36.887793,22.4098371 33.8080078,20.959929 31.712207,18.4319487 L31.5639649,18.25269 C31.2861003,17.91577 30.7146159,17.91577 30.4367513,18.25269 L30.2885091,18.4312289 C28.1919922,20.959929 25.112207,22.4098371 21.8376302,22.4098371 L20.7333333,22.4098371 C20.3276367,22.4098371 20,22.7391981 20,23.1470297 L20,35.086454 C20,37.9895098 21.5576172,40.6877498 24.0648438,42.1275791 L30.6361979,45.9028115 C30.7486328,45.9676039 30.8746744,46 31,46 C31.1253256,46 31.2513672,45.9676039 31.3638021,45.9028115 L37.9351562,42.1275791 C40.4423828,40.6877498 42,37.9895098 42,35.086454 L42,23.1470297 C42,22.7391981 41.6723633,22.4098371 41.2666667,22.4098371 Z M40.5333333,35.086454 C40.5333333,37.4618124 39.259668,39.6690707 37.2075521,40.846851 L31,44.414388 L24.7924479,40.8479309 C22.740332,39.6690707 21.4666667,37.4618124 21.4666667,35.086454 L21.4666667,23.8842223 L21.8376302,23.8842223 C25.3370768,23.8842223 28.6417318,22.4224356 31,19.8509005 C33.3575521,22.4224356 36.6629232,23.8842223 40.1623698,23.8842223 L40.5333333,23.8842223 L40.5333333,35.086454 Z" id="Shape" fill="#000000" fill-rule="nonzero"></path>
                <path d="M31,25 C26.5891335,25 23,28.5891335 23,33 C23,37.4108665 26.5891335,41 31,41 C35.4108665,41 39,37.4108665 39,33 C39,28.5891335 35.4108665,25 31,25 Z M31,39.5454545 C27.390625,39.5454545 24.4545455,36.609375 24.4545455,33 C24.4545455,29.390625 27.390625,26.4545455 31,26.4545455 C34.609375,26.4545455 37.5454545,29.390625 37.5454545,33 C37.5454545,36.609375 34.609375,39.5454545 31,39.5454545 Z" id="Shape" fill="#000000" fill-rule="nonzero"></path>
                <path d="M30.5283476,34.9508566 L29.1068926,33.6637827 L28,34.6660322 L30.3483246,36.7923516 C30.4962416,36.926977 30.6965219,37 30.9017709,37 C30.9652186,37 31.0294306,36.9930784 31.0928781,36.9788891 C31.3604281,36.9176328 31.5717926,36.733518 31.6516754,36.4947223 L34,29.4069908 L32.5001912,29 L30.5283476,34.9508566 Z" id="Path" fill="#000000" fill-rule="nonzero"></path>
                <polygon id="Path" fill="#000000" fill-rule="nonzero" points="3 12 22 12 22 13 3 13"></polygon>
                <polygon id="Path" fill="#000000" fill-rule="nonzero" points="3 15 22 15 22 16 3 16"></polygon>
                <polygon id="Path" fill="#000000" fill-rule="nonzero" points="3 18 22 18 22 19 3 19"></polygon>
                <polygon id="Path" fill="#000000" fill-rule="nonzero" points="3 21 18 21 18 22 3 22"></polygon>
                <polygon id="Path" fill="#000000" fill-rule="nonzero" points="3 24 18 24 18 25 3 25"></polygon>
                <polygon id="Path" fill="#000000" fill-rule="nonzero" points="3 27 18 27 18 28 3 28"></polygon>
                <polygon id="Path" fill="#000000" fill-rule="nonzero" points="3 36 18 36 18 37 3 37"></polygon>
                <polygon id="Path" fill="#000000" fill-rule="nonzero" points="3 39 18 39 18 40 3 40"></polygon>
                <polygon id="Path" fill="#000000" fill-rule="nonzero" points="3 42 18 42 18 43 3 43"></polygon>
                <polygon id="Path" fill="#000000" fill-rule="nonzero" points="4 6 5 6 5 7 4 7"></polygon>
                <polygon id="Path" fill="#000000" fill-rule="nonzero" points="7 6 8 6 8 7 7 7"></polygon>
                <polygon id="Path" fill="#000000" fill-rule="nonzero" points="10 6 11 6 11 7 10 7"></polygon>
                <polygon id="Path" fill="#000000" fill-rule="nonzero" points="13 6 23 6 23 7 13 7"></polygon>
            </g>
        </g>
    </g>
</svg>