<?xml version="1.0" encoding="UTF-8"?>
<svg width="155px" height="54px" viewBox="0 0 155 54" version="1.1" xmlns="http://www.w3.org/2000/svg" xmlns:xlink="http://www.w3.org/1999/xlink">
    <title>logo_color copySVG</title>
    <defs>
        <linearGradient x1="77.4398878%" y1="63.1770192%" x2="8.81659965%" y2="41.0624682%" id="linearGradient-1">
            <stop stop-color="#244397" offset="0%"></stop>
            <stop stop-color="#40C0C6" offset="89%"></stop>
        </linearGradient>
        <linearGradient x1="8.5734364%" y1="55.363102%" x2="90.9814945%" y2="42.5169265%" id="linearGradient-2">
            <stop stop-color="#244397" offset="0%"></stop>
            <stop stop-color="#264D9B" offset="14%"></stop>
            <stop stop-color="#2D6AA6" offset="38%"></stop>
            <stop stop-color="#3797B7" offset="70%"></stop>
            <stop stop-color="#40C0C6" offset="95%"></stop>
        </linearGradient>
        <linearGradient x1="29.4204232%" y1="35.618439%" x2="70.0275989%" y2="63.3361842%" id="linearGradient-3">
            <stop stop-color="#BCBEC0" offset="0%"></stop>
            <stop stop-color="#C5C7C8" offset="13%"></stop>
            <stop stop-color="#DEDEDF" offset="35%"></stop>
            <stop stop-color="#F2F2F2" offset="50%"></stop>
            <stop stop-color="#DBDCDD" offset="60%"></stop>
            <stop stop-color="#C4C6C8" offset="73%"></stop>
            <stop stop-color="#BCBEC0" offset="82%"></stop>
            <stop stop-color="#B1B3B5" offset="87%"></stop>
            <stop stop-color="#949698" offset="97%"></stop>
            <stop stop-color="#8A8C8E" offset="100%"></stop>
        </linearGradient>
        <linearGradient x1="85.7600362%" y1="82.109611%" x2="22.0947694%" y2="7.29525686%" id="linearGradient-4">
            <stop stop-color="#FFFFFF" stop-opacity="0" offset="0%"></stop>
            <stop stop-color="#C6C7C7" stop-opacity="0.39" offset="30%"></stop>
            <stop stop-color="#969798" stop-opacity="0.72" offset="60%"></stop>
            <stop stop-color="#787A7C" stop-opacity="0.93" offset="85%"></stop>
            <stop stop-color="#6D6F71" offset="100%"></stop>
        </linearGradient>
        <linearGradient x1="62.9236423%" y1="55.7278083%" x2="20.9064924%" y2="10.2015044%" id="linearGradient-5">
            <stop stop-color="#FFFFFF" stop-opacity="0" offset="0%"></stop>
            <stop stop-color="#C6C7C7" stop-opacity="0.39" offset="30%"></stop>
            <stop stop-color="#969798" stop-opacity="0.72" offset="60%"></stop>
            <stop stop-color="#787A7C" stop-opacity="0.93" offset="85%"></stop>
            <stop stop-color="#6D6F71" offset="100%"></stop>
        </linearGradient>
        <linearGradient x1="26.2361065%" y1="24.1142803%" x2="90.5587763%" y2="102.227324%" id="linearGradient-6">
            <stop stop-color="#FFFFFF" stop-opacity="0" offset="0%"></stop>
            <stop stop-color="#C6C7C7" stop-opacity="0.39" offset="30%"></stop>
            <stop stop-color="#969798" stop-opacity="0.72" offset="60%"></stop>
            <stop stop-color="#787A7C" stop-opacity="0.93" offset="85%"></stop>
            <stop stop-color="#6D6F71" offset="100%"></stop>
        </linearGradient>
    </defs>
    <g id="Page-1" stroke="none" stroke-width="1" fill="none" fill-rule="evenodd">
        <g id="Group" transform="translate(0.614754, 0.000000)" fill-rule="nonzero">
            <g id="logo_neduer">
                <path d="M74.6501607,19.1549177 C74.0367084,20.3513928 72.84939,21.1035735 71.5517931,21.1177712 C69.572167,20.9997949 68.0246318,19.2857327 68.0246318,17.2110595 C68.0246318,15.1363863 69.572167,13.4223241 71.5517931,13.3043478 C72.2417547,13.306094 72.9157008,13.5220496 73.4882728,13.9248628 L73.2583159,14.3427607 C72.7561541,13.9797648 72.1620874,13.7813876 71.5517931,13.7729 C69.7666442,13.677001 68.2345386,15.0891352 68.100279,16.9541437 C67.9660193,18.8191521 69.2786695,20.4554866 71.0574058,20.6404637 C72.836142,20.8254408 74.4309435,19.4914626 74.6501607,17.6352892 L72.374797,17.6352892 L72.374797,17.2173913 L75.0616626,17.2173913 L75.0616626,21.1304348 L74.6501607,21.1304348 L74.6501607,19.1549177 Z" id="Path" fill="#1C357F"></path>
                <path d="M88.5251456,18.2411892 L87.1085148,18.2411892 L87.1085148,21.1178728 L86.7900474,21.1178728 L86.7900474,13.3043478 L88.5800537,13.3043478 C89.4923887,13.3965203 90.2589459,14.1266336 90.5034467,15.1362982 C90.7479475,16.1459627 90.4190569,17.2231916 89.6782171,17.8392072 L89.4585844,17.9899505 L90.699509,21.1304348 L90.2822069,21.1304348 L89.1071721,18.1532556 C88.9179722,18.2149997 88.7218714,18.244627 88.5251456,18.2411892 L88.5251456,18.2411892 Z M88.5251456,17.8266453 C89.4624365,17.7427308 90.1856072,16.8482184 90.1856072,15.7727685 C90.1856072,14.6973186 89.4624365,13.8028063 88.5251456,13.7188918 L87.1085148,13.7188918 L87.1085148,17.8266453 L88.5251456,17.8266453 Z" id="Shape" fill="#1C357F"></path>
                <path d="M105.170778,21.1304348 C103.655925,21.1304348 102.427894,19.9040843 102.427894,18.3913043 L102.427894,13.342216 L102.908215,13.342216 L102.908215,18.3913043 C102.908215,19.6391735 103.921199,20.6507714 105.170778,20.6507714 C106.420358,20.6507714 107.433342,19.6391735 107.433342,18.3913043 L107.433342,13.3043478 L107.901023,13.3043478 L107.901023,18.3534362 C107.907758,19.0832556 107.623885,19.7858523 107.111858,20.3066473 C106.599832,20.8274423 105.901599,21.1237699 105.170778,21.1304348 Z" id="Path" fill="#1C357F"></path>
                <path d="M122.536958,18.6776709 L120.831582,18.6776709 L120.831582,21.1304348 L120.411417,21.1304348 L120.411417,13.3043478 L122.536958,13.3043478 C123.68357,13.3340347 124.679391,14.1199166 124.998592,15.2470191 C125.317793,16.3741217 124.88688,17.5829351 123.933389,18.2351619 L123.933389,18.2351619 C123.620115,18.4337651 123.271518,18.5669699 122.907692,18.6270984 L122.536958,18.6776709 Z M122.536958,18.1972326 C123.346347,18.2599637 124.121914,17.8537155 124.545354,17.1452185 C124.968794,16.4367214 124.968794,15.5452972 124.545354,14.8368002 C124.121914,14.1283032 123.346347,13.722055 122.536958,13.7847861 L120.881013,13.7847861 L120.881013,18.1972326 L122.536958,18.1972326 Z" id="Shape" fill="#1C357F"></path>
                <path d="M143.084337,16.9434704 C143.020079,18.8718753 141.41748,20.3894784 139.490234,20.3469538 C137.562988,20.3044293 136.028762,18.7176123 136.049471,16.7882465 C136.070179,14.8588807 137.638111,13.3054212 139.565825,13.3043484 C140.519673,13.3038184 141.432864,13.6909276 142.09619,14.376992 C142.759517,15.0630564 143.116132,15.9892801 143.084337,16.9434704 Z M142.6973,16.9434704 C142.639419,15.2453112 141.226227,13.9104509 139.529113,13.9508934 C137.832,13.991336 136.483876,15.391999 136.506802,17.0909912 C136.529727,18.7899833 137.915152,20.1536933 139.612738,20.1482613 C141.340514,20.0972246 142.710809,18.6735258 142.6973,16.9434704 L142.6973,16.9434704 Z" id="Shape" fill="#1C357F"></path>
                <polygon id="Path" fill="#1C357F" points="81.3168012 23.4782609 81.3168012 40.6956522 78.6309116 40.6956522 71.1939816 27.6952566 71.1939816 40.6956522 68.8065241 40.6956522 68.8065241 23.4782609 71.5162883 23.4782609 79.0725912 36.8401132 79.0725912 23.4782609"></polygon>
                <polygon id="Path" fill="#1C357F" points="94.6089706 38.4425716 94.6089706 40.6956522 84.4443705 40.6956522 84.4443705 23.4782609 94.4898077 23.4782609 94.4898077 25.8036328 86.7799644 25.8036328 86.7799644 31.0568047 92.9287729 31.0568047 92.9287729 33.3580795 86.7799644 33.3580795 86.7799644 38.4064259"></polygon>
                <path d="M101.595396,40.6835952 L96.9546476,40.6835952 L96.9546476,23.4782609 L101.595396,23.4782609 C106.373444,23.4782609 110.246817,27.3325052 110.246817,32.0869565 C110.246817,36.8414078 106.373444,40.6956522 101.595396,40.6956522 L101.595396,40.6835952 Z M101.474228,38.2721958 C104.790665,38.1262455 107.403942,35.4083266 107.403942,32.105042 C107.403942,28.8017574 104.790665,26.0838385 101.474228,25.9378882 L99.3901317,25.9378882 L99.3901317,38.2721958 L101.474228,38.2721958 Z" id="Shape" fill="#1C357F"></path>
                <path d="M125.884663,23.4782609 L125.884663,34.6782892 C125.811162,37.3694572 123.981299,39.7044437 121.359957,40.4520152 C118.738616,41.1995868 115.928271,40.1879254 114.410813,37.950478 C113.766166,36.974887 113.407475,35.8424351 113.374386,34.6782892 L113.374386,23.4782609 L115.813037,23.4782609 L115.813037,34.5579882 C115.813037,36.650862 117.532655,38.3474714 119.653911,38.3474714 C121.775168,38.3474714 123.494786,36.650862 123.494786,34.5579882 L123.494786,23.4782609 L125.884663,23.4782609 Z" id="Path" fill="#1C357F"></path>
                <polygon id="Path" fill="#1C357F" points="138.394941 38.4425716 138.394941 40.6956522 128.23034 40.6956522 128.23034 23.4782609 138.275778 23.4782609 138.275778 25.8036328 130.565934 25.8036328 130.565934 31.0568047 136.69091 31.0568047 136.69091 33.3580795 130.565934 33.3580795 130.565934 38.4064259"></polygon>
                <path d="M154.032787,40.6956522 L151.423105,40.6956522 L151.423105,40.6956522 L148.565445,35.0687394 C148.341259,35.0815153 148.116546,35.0815153 147.89236,35.0687394 L147.89236,35.0687394 L145.353529,35.0687394 L145.353529,40.6956522 L143.086294,40.6956522 L143.086294,23.4782609 L147.915977,23.4782609 C150.984749,23.5815598 153.425006,26.1352247 153.442361,29.2614768 C153.446248,31.194842 152.497113,33.0011987 150.915339,34.070804 L154.032787,40.6956522 Z M151.127892,29.3095701 C151.108529,27.4093014 149.593449,25.8773745 147.72704,25.8709011 L145.282678,25.8709011 L145.282678,32.784309 L147.72704,32.784309 C149.609093,32.7710929 151.127892,31.2138805 151.127892,29.2975468 L151.127892,29.3095701 Z" id="Shape" fill="#1C357F"></path>
                <path d="M30.7560912,5.14370435 C31.0313617,5.12563738 31.3075031,5.12563738 31.5827736,5.14370435 L31.7624872,5.14370435 L31.9422008,5.14370435 C37.0939899,6.51102753 37.9326532,10.080588 38.8671638,19.2162429 C38.9510302,20.0511571 39.0348965,20.8860712 39.1067819,21.7209854 C39.4063045,24.8186379 39.8735598,29.8765236 40.7481659,31.3043478 C41.0880472,31.1281374 41.4092067,30.9173051 41.7066383,30.6751372 C47.2970768,26.0073432 52.4432922,20.8220373 57.0781393,15.1868746 C51.6149493,3.87137412 39.1408018,-2.13734219 26.995753,0.696383351 C14.8507043,3.53010889 6.25027424,14.4560198 6.25513855,27.0450756 C6.25513855,27.8194888 6.25513855,28.5818017 6.36296876,29.3320144 C7.34540297,27.8073885 8.38774169,26.2222617 9.47800404,24.6371348 C18.5954727,11.3390094 25.3527031,5.14370435 30.7560912,5.14370435 Z" id="Path" fill="url(#linearGradient-1)"></path>
                <path d="M57.0666005,29.1869818 C45.7882296,46.8397715 40.0342055,48.8807634 36.6857502,48.8807634 C36.3540157,48.8806505 36.0227287,48.8567161 35.6945108,48.8091497 C29.6503678,47.7826859 28.8767175,41.1822852 27.9580077,33.5196138 C27.7766834,31.9679825 27.5832709,30.3686087 27.3415051,28.7453637 L27.3415051,28.2918099 C27.0272097,26.0121055 26.4348837,21.7749585 25.5524388,21.1304348 C25.1535254,21.1304348 23.3402825,21.4526967 18.6983806,26.0001699 C14.8324325,29.9146243 11.1998387,34.0473209 7.81892319,38.3774132 C13.0859974,49.7967589 25.7012295,56.0480581 38.1219064,53.3936265 C50.5425834,50.739195 59.4106389,39.8966874 59.4238163,27.3488955 C59.4238163,26.7640499 59.4238163,26.155333 59.3512865,25.6062942 C58.6139011,26.6685649 57.8523391,27.8979343 57.0666005,29.1869818 Z" id="Path" fill="url(#linearGradient-2)"></path>
                <path d="M0,44.4719432 C0,44.4719432 20.7489909,6.62059474 31.0570219,7.85566753 C34.2110618,8.69115795 35.032804,10.2047275 35.9995596,19.5525334 C36.8938085,28.2949114 37.099244,37.7153686 43.2502262,32.8719458 C49.4012083,28.0285231 58.3920349,18.5354146 65.6789548,8.78802641 C65.6789548,8.78802641 46.4405195,47.6443851 36.5433596,46.1308155 C31.7095819,45.3074337 31.8787641,37.8243456 30.5011374,28.0527402 C29.0026663,17.0823878 28.0359108,6.76589742 0,44.4719432 Z" id="Path" fill="url(#linearGradient-3)"></path>
                <path d="M36.6144583,26.5567029 L36.6144583,26.5567029 C32.4015225,10.9199372 21.8929849,19.6434786 21.8929849,19.6434786 L21.8929849,19.6434786 C28.8788417,14.6256198 29.6047996,21.1986503 30.5211726,28.0268262 C30.7948944,30.0072402 31.0091115,31.8904559 31.2114276,33.6521739 L37.5308313,31.2222181 C37.0989635,29.6957326 36.7924453,28.1351612 36.6144583,26.5567029 L36.6144583,26.5567029 Z" id="Path" fill="url(#linearGradient-4)" opacity="0.7" style="mix-blend-mode: multiply;"></path>
                <path d="M31.2970839,5.07507613 L31.4790678,5.07507613 L31.6610517,5.07507613 C36.8779241,6.44598626 37.7271824,10.0249109 38.6734988,19.1845317 C38.7584246,20.0216361 38.8433504,20.8587406 38.916144,21.695845 C39.2194505,24.8016237 39.6926087,29.872778 40.5782638,31.3043478 C40.9224389,31.1276752 41.2476556,30.9162897 41.5488447,30.6734865 C47.1994958,25.9763715 52.3985566,20.7611985 57.0781393,15.0960652 C37.9455631,0.319352497 27.3662312,5.6210138 27.3662312,5.6210138 L27.3662312,5.6210138 C28.3412035,5.24029018 29.3769587,5.03889856 30.423561,5.02654834 C30.7154978,5.02294955 31.0073423,5.03916271 31.2970839,5.07507613 Z" id="Path" fill="url(#linearGradient-5)" opacity="0.6" style="mix-blend-mode: multiply;"></path>
                <path d="M35.9670467,48.4820019 C29.8638109,47.4386474 29.0825967,40.7296352 28.1549049,32.9408724 C27.9718078,31.3637086 27.7765042,29.7380167 27.5323748,28.0880607 L27.5323748,27.6270436 C27.2150066,25.309826 26.6168894,21.0029557 25.725817,20.3478261 C25.3230035,20.3478261 23.4920327,20.6753909 18.8047476,25.297694 C14.9010026,29.2765619 11.2328935,33.4772631 7.81892319,37.8786083 C25.2619711,49.755865 35.9670467,48.4820019 35.9670467,48.4820019 Z" id="Path" fill="url(#linearGradient-6)" opacity="0.6" style="mix-blend-mode: multiply;"></path>
            </g>
        </g>
    </g>
</svg>