<?xml version="1.0" encoding="UTF-8"?>
<svg width="18px" height="16px" viewBox="0 0 18 16" version="1.1" xmlns="http://www.w3.org/2000/svg" xmlns:xlink="http://www.w3.org/1999/xlink">
    <title>log-out copySVG</title>
    <defs>
        <filter id="filter-1">
            <feColorMatrix in="SourceGraphic" type="matrix" values="0 0 0 0 0.258824 0 0 0 0 0.709804 0 0 0 0 0.717647 0 0 0 1.000000 0"></feColorMatrix>
        </filter>
    </defs>
    <g id="Page-1" stroke="none" stroke-width="1" fill="none" fill-rule="evenodd">
        <g filter="url(#filter-1)" id="log-out-copy">
            <g>
                <path d="M16.1444065,0 L9.87340785,0 C8.84266086,0 8,0.862483172 8,1.9034264 L8,3.58558592 C8,3.84626458 8.20927686,4.05749395 8.46736548,4.05749395 C8.72545411,4.05749395 8.93458484,3.84626458 8.93458484,3.58558592 L8.93458484,1.9034264 C8.93590011,1.37852649 9.35372313,0.951491798 9.87340785,0.943963696 L16.1444065,0.943963696 C16.6598531,0.943963696 17.0654001,1.3829548 17.0654001,1.9034264 L17.0654001,14.1082348 C17.0715381,14.6256066 16.6613145,15.0499843 16.1490831,15.0560363 L9.87355398,15.0560363 C9.35591528,15.0541174 8.93677699,14.6309205 8.93458484,14.1082348 L8.93458484,12.4612063 C8.93458484,12.2003801 8.72545411,11.9891507 8.46736548,11.9891507 C8.20927686,11.9891507 8,12.2003801 8,12.4612063 L8,14.1082348 C8.00277669,15.1521302 8.83988413,15.9974906 9.87340785,16 L16.1444065,16 C17.1731075,15.9961621 18.004077,15.1503589 18,14.111187 L18,1.9034264 C18,0.862483172 17.1751535,0 16.1444065,0 L16.1444065,0 Z" id="Path" fill="#000000" fill-rule="nonzero"></path>
                <path d="M1.71016915,8.16572624 L13.5016878,8.16572624 C13.7768658,8.16572624 14,7.97134269 14,7.73162105 C14,7.49203518 13.7768658,7.29765163 13.5016878,7.29765163 L1.59953697,7.29765163 L4.15576323,4.72356269 C4.3360469,4.54098876 4.31360882,4.26597406 4.10605666,4.10729085 C3.89897196,3.9495578 3.58437147,3.96788308 3.40346449,4.14814939 L3.40346449,4.14842086 L0.181419644,7.3814049 C0.0626848247,7.46651556 -0.00416192252,7.59465667 0.000201045965,7.72836323 C0.00487565434,7.86234128 0.0802925086,7.98695311 0.204792616,8.06568388 L3.42714912,10.872843 C3.62176826,11.0423857 3.93730364,11.0423857 4.13161113,10.872843 C4.32373711,10.7085943 4.3266977,10.4400953 4.13831139,10.2727245 C4.1361299,10.2709599 4.1339484,10.2690595 4.13161113,10.2671591 L1.71016915,8.16572624 Z" id="Path" fill="#000000" fill-rule="nonzero"></path>
            </g>
        </g>
    </g>
</svg>